<svg xmlns="http://www.w3.org/2000/svg" version="1.1" width="512px" height="512px" style="shape-rendering:geometricPrecision; text-rendering:geometricPrecision; image-rendering:optimizeQuality; fill-rule:evenodd; clip-rule:evenodd">
<g><path style="opacity:0.997" fill="#0f9d58" d="M 233.5,5.5 C 319.661,0.589432 391.161,30.2561 448,94.5C 502.367,163.662 518.367,240.995 496,326.5C 468.167,411.667 411.667,468.167 326.5,496C 240.991,518.366 163.658,502.366 94.5,448C 23.427,384.467 -5.07297,305.3 9,210.5C 25.8937,128.482 71.3937,68.3154 145.5,30C 173.562,16.8211 202.895,8.6544 233.5,5.5 Z"/></g>
<g><path style="opacity:1" fill="#fdfefd" d="M 322.5,135.5 C 344.458,134.245 366.124,136.078 387.5,141C 395.34,143.254 402.673,146.587 409.5,151C 418.313,157.689 418.646,164.689 410.5,172C 398.918,179.418 386.251,184.085 372.5,186C 347.624,189.803 322.957,188.803 298.5,183C 290.66,180.746 283.327,177.413 276.5,173C 268.074,166.614 267.408,159.614 274.5,152C 289.311,142.786 305.311,137.286 322.5,135.5 Z"/></g>
<g><path style="opacity:1" fill="#fdfefd" d="M 269.5,176.5 C 285.613,187.706 303.613,193.872 323.5,195C 350.63,197.579 376.963,194.246 402.5,185C 407.267,182.562 411.767,179.729 416,176.5C 416.667,187.833 416.667,199.167 416,210.5C 414.65,215.185 411.817,218.685 407.5,221C 386.907,231.24 365.074,236.073 342,235.5C 320.086,235.812 299.253,231.312 279.5,222C 276.37,219.872 273.537,217.372 271,214.5C 269.539,201.933 269.039,189.266 269.5,176.5 Z"/></g>
<g><path style="opacity:1" fill="#fdfefd" d="M 147.5,182.5 C 169.791,181.164 191.791,182.997 213.5,188C 221.34,190.254 228.673,193.587 235.5,198C 243.714,205.647 243.381,212.98 234.5,220C 221.17,227.586 206.836,232.253 191.5,234C 165.625,237.254 140.292,234.92 115.5,227C 107.617,224.324 101.117,219.824 96,213.5C 94.8495,211.246 94.5162,208.913 95,206.5C 98.6188,199.549 104.119,194.716 111.5,192C 123.319,187.653 135.319,184.486 147.5,182.5 Z"/></g>
<g><path style="opacity:1" fill="#fdfefd" d="M 95.5,257.5 C 95.1721,246.321 95.5054,235.321 96.5,224.5C 112.782,235.204 130.782,241.037 150.5,242C 176.165,244.333 201.165,241.333 225.5,233C 231.251,230.711 236.418,227.545 241,223.5C 241.499,228.489 241.666,233.489 241.5,238.5C 218.742,244.088 202.909,257.754 194,279.5C 163.386,285.455 133.886,281.955 105.5,269C 100.873,266.212 97.5393,262.378 95.5,257.5 Z"/></g>
<g><path style="opacity:1" fill="#fdfefd" d="M 414.5,224.5 C 415.495,235.321 415.828,246.321 415.5,257.5C 411.819,265.2 405.819,270.367 397.5,273C 371.386,281.812 344.719,284.145 317.5,280C 308.547,258.546 292.88,244.712 270.5,238.5C 269.338,233.533 269.171,228.533 270,223.5C 280.494,231.56 292.328,236.727 305.5,239C 339.31,245.817 372.31,243.15 404.5,231C 408.032,229.072 411.366,226.905 414.5,224.5 Z"/></g>
<g><path style="opacity:1" fill="#fdfefd" d="M 245.5,244.5 C 280.618,242.292 303.118,257.958 313,291.5C 316.281,321.115 304.781,342.615 278.5,356C 248.65,366.336 224.483,358.836 206,333.5C 191.069,304.792 195.236,279.292 218.5,257C 226.804,251.179 235.804,247.012 245.5,244.5 Z"/></g>
<g><path style="opacity:1" fill="#0f9d58" d="M 253.5,252.5 C 255.722,252.178 257.556,252.845 259,254.5C 259.497,257.146 259.664,259.813 259.5,262.5C 268.7,263.862 274.7,269.029 277.5,278C 276.553,281.072 274.553,282.072 271.5,281C 269.517,275.518 265.851,271.685 260.5,269.5C 259.501,279.478 259.168,289.478 259.5,299.5C 272.532,303.21 278.365,311.877 277,325.5C 274.703,334.297 269.203,339.963 260.5,342.5C 260.025,345.926 259.025,349.092 257.5,352C 255.299,352.825 253.466,352.325 252,350.5C 251.503,347.854 251.336,345.187 251.5,342.5C 242.3,341.138 236.3,335.971 233.5,327C 237.005,320.957 239.838,321.457 242,328.5C 244.397,331.4 247.23,333.733 250.5,335.5C 251.499,325.522 251.832,315.522 251.5,305.5C 240.473,302.645 234.473,295.478 233.5,284C 234.321,272.356 240.321,265.189 251.5,262.5C 251.034,258.838 251.701,255.505 253.5,252.5 Z"/></g>
<g><path style="opacity:1" fill="#fdfefd" d="M 251.5,269.5 C 251.827,279.015 251.494,288.348 250.5,297.5C 244.36,294.997 241.36,290.331 241.5,283.5C 241.404,276.352 244.737,271.685 251.5,269.5 Z"/></g>
<g><path style="opacity:1" fill="#fdfefd" d="M 96.5,271.5 C 113.235,282.021 131.568,287.855 151.5,289C 164.846,289.413 178.18,289.413 191.5,289C 189.509,302.053 190.509,314.887 194.5,327.5C 171.291,329.746 148.291,328.579 125.5,324C 114.447,321.559 104.947,316.392 97,308.5C 96.2086,307.255 95.7086,305.922 95.5,304.5C 95.1721,293.321 95.5054,282.321 96.5,271.5 Z"/></g>
<g><path style="opacity:1" fill="#fdfefd" d="M 414.5,271.5 C 415.495,282.321 415.828,293.321 415.5,304.5C 413.461,309.378 410.127,313.212 405.5,316C 391.846,322.331 377.513,326.331 362.5,328C 347.141,328.769 331.808,328.602 316.5,327.5C 320.491,314.887 321.491,302.053 319.5,289C 339.265,290.147 358.932,289.147 378.5,286C 391.643,283.791 403.643,278.957 414.5,271.5 Z"/></g>
<g><path style="opacity:1" fill="#fdfefd" d="M 259.5,306.5 C 269.233,310.99 272.067,318.323 268,328.5C 266.338,331.577 263.838,333.577 260.5,334.5C 259.506,325.348 259.173,316.015 259.5,306.5 Z"/></g>
<g><path style="opacity:1" fill="#fdfefd" d="M 96.5,318.5 C 110.786,327.652 126.452,333.152 143.5,335C 151.975,335.913 160.475,336.413 169,336.5C 178.882,336.251 188.716,335.751 198.5,335C 206.053,347.886 216.719,357.219 230.5,363C 215.673,370.167 200.007,374.167 183.5,375C 159.871,377.308 136.871,374.641 114.5,367C 107.725,364.534 101.892,360.7 97,355.5C 96.2086,354.255 95.7086,352.922 95.5,351.5C 95.1721,340.321 95.5054,329.321 96.5,318.5 Z"/></g>
<g><path style="opacity:1" fill="#fdfefd" d="M 414.5,318.5 C 415.495,329.321 415.828,340.321 415.5,351.5C 414.523,354.989 412.523,357.823 409.5,360C 393.478,369.341 376.144,374.341 357.5,375C 338.283,376.473 319.283,375.14 300.5,371C 293.515,369.116 286.848,366.45 280.5,363C 294.281,357.219 304.947,347.886 312.5,335C 342.882,338.945 372.549,335.945 401.5,326C 406.188,323.993 410.521,321.493 414.5,318.5 Z"/></g>
</svg>
