<?xml version="1.0" encoding="UTF-8"?>
<!DOCTYPE svg PUBLIC "-//W3C//DTD SVG 1.1//EN" "http://www.w3.org/Graphics/SVG/1.1/DTD/svg11.dtd">
<svg xmlns="http://www.w3.org/2000/svg" version="1.1" width="512px" height="512px" style="shape-rendering:geometricPrecision; text-rendering:geometricPrecision; image-rendering:optimizeQuality; fill-rule:evenodd; clip-rule:evenodd" xmlns:xlink="http://www.w3.org/1999/xlink">
<g><path style="opacity:0.959" fill="#363534" d="M 328.5,249.5 C 327.399,250.8 326.066,251.3 324.5,251C 313.524,237.354 300.191,226.688 284.5,219C 281.854,218.503 279.187,218.336 276.5,218.5C 252.164,218.333 227.831,218.5 203.5,219C 199.007,221.079 194.674,223.412 190.5,226C 188.803,226.384 187.137,226.218 185.5,225.5C 185.343,224.127 185.51,222.793 186,221.5C 188.748,219.542 191.582,217.709 194.5,216C 189.167,209 189.167,202 194.5,195C 190.284,189.69 189.451,183.857 192,177.5C 194.188,175.312 196.355,173.145 198.5,171C 190.71,152.612 183.543,134.112 177,115.5C 185.408,107.887 195.241,105.387 206.5,108C 210.446,109.306 214.112,111.139 217.5,113.5C 230.457,97.2054 246.124,94.0388 264.5,104C 267.683,107.015 270.683,110.182 273.5,113.5C 281.989,107.804 291.322,105.971 301.5,108C 305.363,109.181 308.863,111.014 312,113.5C 312.325,115.553 311.991,117.553 311,119.5C 303.557,136.719 296.39,154.052 289.5,171.5C 297.007,175.861 299.507,182.194 297,190.5C 296.215,192.286 295.049,193.786 293.5,195C 300.167,202 300.167,209 293.5,216C 306.074,222.562 316.908,231.395 326,242.5C 327.903,244.441 328.736,246.774 328.5,249.5 Z"/></g>
<g><path style="opacity:1" fill="#fca47f" d="M 275.5,121.5 C 273.832,126.172 272.165,130.838 270.5,135.5C 268.234,135.141 266.401,135.808 265,137.5C 262.605,148.876 260.105,160.209 257.5,171.5C 249.5,171.5 241.5,171.5 233.5,171.5C 231.002,159.847 228.502,148.18 226,136.5C 223.214,134.816 221.38,135.483 220.5,138.5C 222.996,149.481 225.329,160.481 227.5,171.5C 224.833,171.5 222.167,171.5 219.5,171.5C 211.835,152.172 204.168,132.838 196.5,113.5C 201.034,113.267 205.368,114.1 209.5,116C 212.702,118.43 216.035,120.597 219.5,122.5C 222.132,119.93 224.299,116.93 226,113.5C 236.896,102.994 248.729,101.827 261.5,110C 265.23,113.463 268.23,117.463 270.5,122C 272.265,122.64 273.932,122.473 275.5,121.5 Z"/></g>
<g><path style="opacity:1" fill="#fdfbfb" d="M 196.5,113.5 C 204.168,132.838 211.835,152.172 219.5,171.5C 214.833,171.5 210.167,171.5 205.5,171.5C 198.803,153.916 191.803,136.416 184.5,119C 187.552,115.383 191.552,113.55 196.5,113.5 Z"/></g>
<g><path style="opacity:1" fill="#fc773f" d="M 270.5,135.5 C 272.165,130.838 273.832,126.172 275.5,121.5C 281.354,114.937 288.687,112.437 297.5,114C 300.414,114.133 302.747,115.3 304.5,117.5C 297.167,135.167 289.833,152.833 282.5,170.5C 276.193,171.664 269.859,171.831 263.5,171C 266.765,159.366 269.098,147.533 270.5,135.5 Z"/></g>
<g><path style="opacity:1" fill="#f6de61" d="M 270.5,177.5 C 274.061,181.718 274.394,186.218 271.5,191C 276.489,191.499 281.489,191.666 286.5,191.5C 258.67,192.664 230.67,192.83 202.5,192C 194.927,187.813 194.594,183.146 201.5,178C 224.498,177.5 247.498,177.333 270.5,177.5 Z"/></g>
<g><path style="opacity:1" fill="#fcb902" d="M 270.5,177.5 C 276.621,177.09 282.621,177.59 288.5,179C 291.864,182.026 292.364,185.526 290,189.5C 289.184,190.823 288.017,191.489 286.5,191.5C 281.489,191.666 276.489,191.499 271.5,191C 274.394,186.218 274.061,181.718 270.5,177.5 Z"/></g>
<g><path style="opacity:0.953" fill="#353535" d="M 180.5,228.5 C 180.5,229.167 180.5,229.833 180.5,230.5C 179.505,241.654 179.172,252.988 179.5,264.5C 183.5,264.5 187.5,264.5 191.5,264.5C 192.117,264.611 192.617,264.944 193,265.5C 193.667,287.5 193.667,309.5 193,331.5C 191.124,343.041 184.624,350.541 173.5,354C 163.9,355.391 154.233,355.891 144.5,355.5C 138.167,355.5 131.833,355.5 125.5,355.5C 117.16,355.666 108.827,355.5 100.5,355C 90.8603,352.695 84.3603,346.862 81,337.5C 79.3727,313.216 79.0394,288.883 80,264.5C 84.0659,263.536 88.2325,263.203 92.5,263.5C 92.3335,251.829 92.5001,240.162 93,228.5C 99.1353,199.664 116.969,186.83 146.5,190C 165.799,195.799 177.132,208.632 180.5,228.5 Z M 131.5,216.5 C 142.731,215.027 149.898,219.694 153,230.5C 153.5,241.495 153.667,252.495 153.5,263.5C 142.5,263.5 131.5,263.5 120.5,263.5C 120.333,251.495 120.5,239.495 121,227.5C 123.357,222.645 126.857,218.979 131.5,216.5 Z"/></g>
<g><path style="opacity:1" fill="#fcfcfc" d="M 140.5,196.5 C 126.891,198.776 118.891,206.776 116.5,220.5C 115.68,222.812 114.847,225.146 114,227.5C 113.5,239.495 113.333,251.495 113.5,263.5C 108.833,263.5 104.167,263.5 99.5,263.5C 99.3334,250.829 99.5001,238.162 100,225.5C 105.97,204.997 119.47,195.33 140.5,196.5 Z"/></g>
<g><path style="opacity:1" fill="#a4e9ab" d="M 140.5,196.5 C 141.5,196.5 142.5,196.5 143.5,196.5C 152.764,201.952 158.931,209.952 162,220.5C 163.43,234.774 163.93,249.108 163.5,263.5C 162.5,263.5 161.5,263.5 160.5,263.5C 160.828,252.321 160.495,241.321 159.5,230.5C 155.526,214.043 145.192,207.543 128.5,211C 123.481,212.994 119.481,216.161 116.5,220.5C 118.891,206.776 126.891,198.776 140.5,196.5 Z"/></g>
<g><path style="opacity:1" fill="#67ca73" d="M 143.5,196.5 C 157.38,199.207 166.88,207.207 172,220.5C 173.43,234.774 173.93,249.108 173.5,263.5C 170.167,263.5 166.833,263.5 163.5,263.5C 163.93,249.108 163.43,234.774 162,220.5C 158.931,209.952 152.764,201.952 143.5,196.5 Z"/></g>
<g><path style="opacity:1" fill="#fee461" d="M 270.5,198.5 C 274.423,203.095 274.423,207.762 270.5,212.5C 247.498,212.667 224.498,212.5 201.5,212C 195.297,208.171 194.964,203.838 200.5,199C 223.831,198.5 247.164,198.333 270.5,198.5 Z"/></g>
<g><path style="opacity:1" fill="#fcb902" d="M 270.5,198.5 C 276.176,198.334 281.843,198.501 287.5,199C 292.821,203.285 292.821,207.619 287.5,212C 281.843,212.499 276.176,212.666 270.5,212.5C 274.423,207.762 274.423,203.095 270.5,198.5 Z"/></g>
<g><path style="opacity:1" fill="#fda57f" d="M 276.5,218.5 C 317.543,248.792 328.376,287.792 309,335.5C 308.5,344.16 308.334,352.827 308.5,361.5C 315.167,361.5 321.833,361.5 328.5,361.5C 314.339,362.331 300.006,362.831 285.5,363C 284,363.833 282.833,365 282,366.5C 281.333,380.167 281.333,393.833 282,407.5C 282.513,408.527 283.013,409.527 283.5,410.5C 281.167,410.5 278.833,410.5 276.5,410.5C 275.751,409.469 275.085,408.302 274.5,407C 226.834,406.5 179.168,406.333 131.5,406.5C 122.693,393.815 125.526,385.148 140,380.5C 141.581,372.193 143.081,363.86 144.5,355.5C 154.233,355.891 163.9,355.391 173.5,354C 184.624,350.541 191.124,343.041 193,331.5C 193.667,309.5 193.667,287.5 193,265.5C 192.617,264.944 192.117,264.611 191.5,264.5C 188.038,263.518 184.371,263.185 180.5,263.5C 180.5,252.5 180.5,241.5 180.5,230.5C 180.5,229.833 180.5,229.167 180.5,228.5C 182.411,227.925 184.078,226.925 185.5,225.5C 187.137,226.218 188.803,226.384 190.5,226C 194.674,223.412 199.007,221.079 203.5,219C 227.831,218.5 252.164,218.333 276.5,218.5 Z"/></g>
<g><path style="opacity:0.999" fill="#fd7740" d="M 276.5,218.5 C 279.187,218.336 281.854,218.503 284.5,219C 300.191,226.688 313.524,237.354 324.5,251C 326.066,251.3 327.399,250.8 328.5,249.5C 329.604,251.389 330.937,253.055 332.5,254.5C 325.431,274.185 327.931,292.519 340,309.5C 343.883,313.05 348.049,316.217 352.5,319C 346.167,319.333 339.833,319.667 333.5,320C 332.421,320.956 331.255,321.789 330,322.5C 328.538,335.401 328.038,348.401 328.5,361.5C 321.833,361.5 315.167,361.5 308.5,361.5C 308.334,352.827 308.5,344.16 309,335.5C 328.376,287.792 317.543,248.792 276.5,218.5 Z"/></g>
<g><path style="opacity:0.978" fill="#363534" d="M 283.5,410.5 C 283.013,409.527 282.513,408.527 282,407.5C 281.333,393.833 281.333,380.167 282,366.5C 282.833,365 284,363.833 285.5,363C 300.006,362.831 314.339,362.331 328.5,361.5C 328.038,348.401 328.538,335.401 330,322.5C 331.255,321.789 332.421,320.956 333.5,320C 339.833,319.667 346.167,319.333 352.5,319C 348.049,316.217 343.883,313.05 340,309.5C 327.931,292.519 325.431,274.185 332.5,254.5C 346.895,231.189 367.562,223.022 394.5,230C 412.837,236.004 423.671,248.504 427,267.5C 430.514,289.328 423.347,306.495 405.5,319C 411.5,319.333 417.5,319.667 423.5,320C 425.333,320.5 426.5,321.667 427,323.5C 427.667,351.833 427.667,380.167 427,408.5C 426.5,410.333 425.333,411.5 423.5,412C 377.5,412.667 331.5,412.667 285.5,412C 284.584,411.722 283.918,411.222 283.5,410.5 Z"/></g>
<g><path style="opacity:0.973" fill="#8bb890" d="M 159.5,230.5 C 160.495,241.321 160.828,252.321 160.5,263.5C 161.5,263.5 162.5,263.5 163.5,263.5C 166.833,263.5 170.167,263.5 173.5,263.5C 169.03,264.486 164.363,264.819 159.5,264.5C 159.5,253.167 159.5,241.833 159.5,230.5 Z"/></g>
<g><path style="opacity:1" fill="#a9755f" d="M 180.5,230.5 C 180.5,241.5 180.5,252.5 180.5,263.5C 184.371,263.185 188.038,263.518 191.5,264.5C 187.5,264.5 183.5,264.5 179.5,264.5C 179.172,252.988 179.505,241.654 180.5,230.5 Z"/></g>
<g><path style="opacity:1" fill="#fce261" d="M 376.5,234.5 C 381.214,234.353 385.881,234.686 390.5,235.5C 406.466,255.69 409.966,278.023 401,302.5C 398.274,307.893 394.774,312.726 390.5,317C 390.728,317.399 391.062,317.565 391.5,317.5C 386.097,319.205 380.43,319.872 374.5,319.5C 355.298,311.646 345.965,297.146 346.5,276C 346.878,255.037 356.878,241.204 376.5,234.5 Z"/></g>
<g><path style="opacity:1" fill="#fbfbf9" d="M 376.5,234.5 C 356.878,241.204 346.878,255.037 346.5,276C 345.965,297.146 355.298,311.646 374.5,319.5C 344.265,314.058 331.431,296.058 336,265.5C 342.207,245.646 355.707,235.313 376.5,234.5 Z"/></g>
<g><path style="opacity:1" fill="#fbb903" d="M 390.5,235.5 C 416.661,245.486 426.161,264.153 419,291.5C 414.187,304.814 405.02,313.481 391.5,317.5C 391.062,317.565 390.728,317.399 390.5,317C 394.774,312.726 398.274,307.893 401,302.5C 409.966,278.023 406.466,255.69 390.5,235.5 Z"/></g>
<g><path style="opacity:1" fill="#383734" d="M 375.5,245.5 C 376.873,245.343 378.207,245.51 379.5,246C 380.113,248.147 380.779,250.314 381.5,252.5C 389.119,254.263 392.619,258.93 392,266.5C 390.644,267.38 389.144,267.714 387.5,267.5C 386.623,259.713 382.289,256.88 374.5,259C 369.715,262.26 369.381,265.927 373.5,270C 378.003,272.39 382.669,274.39 387.5,276C 396.402,283.404 396.735,291.071 388.5,299C 385.978,300.341 383.311,301.174 380.5,301.5C 381.169,305.676 379.669,307.009 376,305.5C 375.51,304.207 375.343,302.873 375.5,301.5C 365.395,299.748 361.062,293.915 362.5,284C 363.5,283.333 364.5,283.333 365.5,284C 367.037,286.28 368.203,288.78 369,291.5C 372.743,295.259 377.243,296.426 382.5,295C 388.059,293.542 389.892,290.042 388,284.5C 381.771,280.633 375.271,277.133 368.5,274C 361.662,264.365 363.662,257.199 374.5,252.5C 375.474,250.257 375.808,247.924 375.5,245.5 Z"/></g>
<g><path style="opacity:1" fill="#383534" d="M 242.5,257.5 C 244.144,257.286 245.644,257.62 247,258.5C 247.499,262.821 247.666,267.154 247.5,271.5C 260.16,271.974 267.827,278.307 270.5,290.5C 271.091,294.92 269.424,296.253 265.5,294.5C 264.071,284.073 258.071,278.406 247.5,277.5C 247.168,288.853 247.501,300.186 248.5,311.5C 256.715,314.187 263.882,318.52 270,324.5C 278.265,340.276 274.432,352.109 258.5,360C 254.855,360.995 251.188,361.828 247.5,362.5C 247.664,365.187 247.497,367.854 247,370.5C 245.333,373.167 243.667,373.167 242,370.5C 241.502,367.518 241.335,364.518 241.5,361.5C 224.191,360.027 215.357,350.694 215,333.5C 216.049,332.483 217.216,332.316 218.5,333C 220.064,343.445 225.731,350.778 235.5,355C 237.473,355.495 239.473,355.662 241.5,355.5C 241.667,342.163 241.5,328.829 241,315.5C 231.587,312.474 224.92,306.474 221,297.5C 220.163,282.833 226.996,274.166 241.5,271.5C 241.226,266.737 241.559,262.07 242.5,257.5 Z"/></g>
<g><path style="opacity:1" fill="#fcfdfc" d="M 86.5,270.5 C 90.8333,270.5 95.1667,270.5 99.5,270.5C 99.3334,291.836 99.5,313.169 100,334.5C 101.413,337.661 103.08,340.661 105,343.5C 107.843,346.163 111.009,348.163 114.5,349.5C 102.576,351.153 93.743,346.819 88,336.5C 86.5325,314.566 86.0325,292.566 86.5,270.5 Z"/></g>
<g><path style="opacity:1" fill="#a3e7aa" d="M 99.5,270.5 C 122.167,270.5 144.833,270.5 167.5,270.5C 167.5,283.833 167.5,297.167 167.5,310.5C 163.443,303.64 157.443,301.14 149.5,303C 142.39,306.725 139.723,312.558 141.5,320.5C 140.051,332.852 145.384,339.019 157.5,339C 161.314,337.778 164.314,335.611 166.5,332.5C 164.583,341.416 159.25,347.083 150.5,349.5C 138.5,349.5 126.5,349.5 114.5,349.5C 111.009,348.163 107.843,346.163 105,343.5C 103.08,340.661 101.413,337.661 100,334.5C 99.5,313.169 99.3334,291.836 99.5,270.5 Z"/></g>
<g><path style="opacity:1" fill="#67ca73" d="M 167.5,270.5 C 173.833,270.5 180.167,270.5 186.5,270.5C 186.5,290.833 186.5,311.167 186.5,331.5C 184.427,340.741 178.76,346.574 169.5,349C 163.175,349.5 156.842,349.666 150.5,349.5C 159.25,347.083 164.583,341.416 166.5,332.5C 167.43,325.223 167.764,317.89 167.5,310.5C 167.5,297.167 167.5,283.833 167.5,270.5 Z"/></g>
<g><path style="opacity:1" fill="#639568" d="M 86.5,270.5 C 119.996,269.502 153.663,269.168 187.5,269.5C 187.831,290.34 187.497,311.007 186.5,331.5C 186.5,311.167 186.5,290.833 186.5,270.5C 180.167,270.5 173.833,270.5 167.5,270.5C 144.833,270.5 122.167,270.5 99.5,270.5C 95.1667,270.5 90.8333,270.5 86.5,270.5 Z"/></g>
<g><path style="opacity:1" fill="#383a38" d="M 112.5,277.5 C 119.796,276.565 125.296,279.232 129,285.5C 129.667,292.167 129.667,298.833 129,305.5C 124.314,314.284 117.481,316.45 108.5,312C 106.383,310.269 104.883,308.102 104,305.5C 103.333,298.833 103.333,292.167 104,285.5C 106.074,281.923 108.907,279.256 112.5,277.5 Z"/></g>
<g><path style="opacity:1" fill="#373937" d="M 149.5,276.5 C 150.822,276.33 151.989,276.663 153,277.5C 153.706,279.971 153.373,282.305 152,284.5C 141.667,302.5 131.333,320.5 121,338.5C 118.2,340.118 116.7,339.285 116.5,336C 127.105,315.959 138.105,296.125 149.5,276.5 Z"/></g>
<g><path style="opacity:1" fill="#faa37e" d="M 238.5,277.5 C 239.5,277.5 240.5,277.5 241.5,277.5C 241.832,287.855 241.499,298.188 240.5,308.5C 227.505,303.869 224.005,295.535 230,283.5C 232.671,281.098 235.505,279.098 238.5,277.5 Z"/></g>
<g><path style="opacity:1" fill="#a3e7aa" d="M 113.5,283.5 C 117.684,282.704 120.85,284.037 123,287.5C 123.667,293.167 123.667,298.833 123,304.5C 118.715,309.821 114.381,309.821 110,304.5C 109.333,298.833 109.333,293.167 110,287.5C 111.102,286.051 112.269,284.718 113.5,283.5 Z"/></g>
<g><path style="opacity:1" fill="#373937" d="M 167.5,310.5 C 167.764,317.89 167.43,325.223 166.5,332.5C 164.314,335.611 161.314,337.778 157.5,339C 145.384,339.019 140.051,332.852 141.5,320.5C 139.723,312.558 142.39,306.725 149.5,303C 157.443,301.14 163.443,303.64 167.5,310.5 Z"/></g>
<g><path style="opacity:1" fill="#a1e3a8" d="M 150.5,308.5 C 155.635,307.426 159.468,309.093 162,313.5C 162.667,318.167 162.667,322.833 162,327.5C 158.154,334.466 153.487,335.133 148,329.5C 147.333,323.5 147.333,317.5 148,311.5C 149.045,310.627 149.878,309.627 150.5,308.5 Z"/></g>
<g><path style="opacity:1" fill="#fba47e" d="M 247.5,317.5 C 256.876,319.723 263.709,325.056 268,333.5C 269.886,340.549 268.053,346.382 262.5,351C 258.275,353.909 253.608,355.743 248.5,356.5C 247.501,343.517 247.168,330.517 247.5,317.5 Z"/></g>
<g><path style="opacity:1" fill="#f4f1e5" d="M 393.5,325.5 C 393.5,325.833 393.5,326.167 393.5,326.5C 377.833,326.5 362.167,326.5 346.5,326.5C 346.5,331.167 346.5,335.833 346.5,340.5C 342.5,340.5 338.5,340.5 334.5,340.5C 334.197,335.57 334.531,330.737 335.5,326C 354.83,325.5 374.164,325.333 393.5,325.5 Z"/></g>
<g><path style="opacity:1" fill="#f9df5e" d="M 393.5,326.5 C 394.486,330.97 394.819,335.637 394.5,340.5C 390.013,340.141 388.346,341.974 389.5,346C 391.134,346.494 392.801,346.66 394.5,346.5C 394.5,351.833 394.5,357.167 394.5,362.5C 403.5,362.5 412.5,362.5 421.5,362.5C 411.008,363.33 400.341,363.83 389.5,364C 388.167,365.333 388.167,366.667 389.5,368C 400.341,368.17 411.008,368.67 421.5,369.5C 412.5,369.5 403.5,369.5 394.5,369.5C 394.5,374.833 394.5,380.167 394.5,385.5C 388.791,384.678 387.457,386.511 390.5,391C 391.793,391.49 393.127,391.657 394.5,391.5C 394.5,396.167 394.5,400.833 394.5,405.5C 390.5,405.5 386.5,405.5 382.5,405.5C 382.829,392.989 382.495,380.655 381.5,368.5C 381.262,365.852 379.928,364.018 377.5,363C 366.992,362.83 356.659,362.33 346.5,361.5C 346.5,356.5 346.5,351.5 346.5,346.5C 353.175,346.666 359.842,346.5 366.5,346C 367.86,344.062 367.527,342.396 365.5,341C 359.175,340.5 352.842,340.334 346.5,340.5C 346.5,335.833 346.5,331.167 346.5,326.5C 362.167,326.5 377.833,326.5 393.5,326.5 Z"/></g>
<g><path style="opacity:1" fill="#fbb801" d="M 393.5,326.5 C 393.5,326.167 393.5,325.833 393.5,325.5C 402.506,325.334 411.506,325.5 420.5,326C 421.469,330.737 421.803,335.57 421.5,340.5C 412.5,340.5 403.5,340.5 394.5,340.5C 394.819,335.637 394.486,330.97 393.5,326.5 Z"/></g>
<g><path style="opacity:1" fill="#fbfaf7" d="M 346.5,346.5 C 346.5,351.5 346.5,356.5 346.5,361.5C 342.5,361.5 338.5,361.5 334.5,361.5C 334.5,356.5 334.5,351.5 334.5,346.5C 338.5,346.5 342.5,346.5 346.5,346.5 Z"/></g>
<g><path style="opacity:1" fill="#fcb901" d="M 394.5,346.5 C 403.5,346.5 412.5,346.5 421.5,346.5C 421.5,351.833 421.5,357.167 421.5,362.5C 412.5,362.5 403.5,362.5 394.5,362.5C 394.5,357.167 394.5,351.833 394.5,346.5 Z"/></g>
<g><path style="opacity:0.995" fill="#fcfbfb" d="M 125.5,355.5 C 131.833,355.5 138.167,355.5 144.5,355.5C 143.081,363.86 141.581,372.193 140,380.5C 125.526,385.148 122.693,393.815 131.5,406.5C 124.472,407.649 118.305,405.982 113,401.5C 109.117,394.969 109.95,389.135 115.5,384C 119.07,382.5 122.57,381 126,379.5C 126.335,374.481 126.835,369.481 127.5,364.5C 127.38,362.412 126.38,361.078 124.5,360.5C 125.301,358.958 125.634,357.292 125.5,355.5 Z"/></g>
<g><path style="opacity:0.961" fill="#343333" d="M 124.5,360.5 C 126.38,361.078 127.38,362.412 127.5,364.5C 126.835,369.481 126.335,374.481 126,379.5C 122.57,381 119.07,382.5 115.5,384C 109.95,389.135 109.117,394.969 113,401.5C 118.305,405.982 124.472,407.649 131.5,406.5C 179.168,406.333 226.834,406.5 274.5,407C 275.085,408.302 275.751,409.469 276.5,410.5C 276.389,411.117 276.056,411.617 275.5,412C 222.833,412.667 170.167,412.667 117.5,412C 106.34,407.516 102.174,399.349 105,387.5C 107.585,380.79 112.418,376.79 119.5,375.5C 119.794,370.739 120.627,366.072 122,361.5C 122.671,360.748 123.504,360.414 124.5,360.5 Z"/></g>
<g><path style="opacity:1" fill="#fefefe" d="M 299.5,368.5 C 298.555,373.405 298.221,378.405 298.5,383.5C 294.833,383.5 291.167,383.5 287.5,383.5C 287.5,378.5 287.5,373.5 287.5,368.5C 291.5,368.5 295.5,368.5 299.5,368.5 Z"/></g>
<g><path style="opacity:1" fill="#fde362" d="M 299.5,368.5 C 324.833,368.5 350.167,368.5 375.5,368.5C 375.5,373.5 375.5,378.5 375.5,383.5C 364.828,383.333 354.161,383.5 343.5,384C 342.14,385.938 342.473,387.604 344.5,389C 354.828,389.5 365.161,389.666 375.5,389.5C 375.807,395.093 375.473,400.593 374.5,406C 349.502,406.5 324.502,406.667 299.5,406.5C 298.548,400.925 298.214,395.259 298.5,389.5C 305.508,389.666 312.508,389.5 319.5,389C 320.991,386.978 320.658,385.312 318.5,384C 311.842,383.5 305.175,383.334 298.5,383.5C 298.221,378.405 298.555,373.405 299.5,368.5 Z"/></g>
<g><path style="opacity:1" fill="#fbb802" d="M 421.5,369.5 C 421.5,374.833 421.5,380.167 421.5,385.5C 412.5,385.5 403.5,385.5 394.5,385.5C 394.5,380.167 394.5,374.833 394.5,369.5C 403.5,369.5 412.5,369.5 421.5,369.5 Z"/></g>
<g><path style="opacity:1" fill="#b6a650" d="M 381.5,368.5 C 382.495,380.655 382.829,392.989 382.5,405.5C 386.5,405.5 390.5,405.5 394.5,405.5C 394.5,405.833 394.5,406.167 394.5,406.5C 390.167,406.5 385.833,406.5 381.5,406.5C 381.5,393.833 381.5,381.167 381.5,368.5 Z"/></g>
<g><path style="opacity:1" fill="#fbfbfb" d="M 298.5,389.5 C 298.214,395.259 298.548,400.925 299.5,406.5C 295.563,406.793 291.73,406.46 288,405.5C 287.501,400.177 287.334,394.844 287.5,389.5C 291.167,389.5 294.833,389.5 298.5,389.5 Z"/></g>
<g><path style="opacity:1" fill="#fbb901" d="M 394.5,391.5 C 403.5,391.5 412.5,391.5 421.5,391.5C 421.803,396.43 421.469,401.263 420.5,406C 411.84,406.5 403.173,406.666 394.5,406.5C 394.5,406.167 394.5,405.833 394.5,405.5C 394.5,400.833 394.5,396.167 394.5,391.5 Z"/></g>
</svg>
