<?xml version="1.0" encoding="UTF-8"?>
<!DOCTYPE svg PUBLIC "-//W3C//DTD SVG 1.1//EN" "http://www.w3.org/Graphics/SVG/1.1/DTD/svg11.dtd">
<svg xmlns="http://www.w3.org/2000/svg" version="1.1" width="512px" height="512px" style="shape-rendering:geometricPrecision; text-rendering:geometricPrecision; image-rendering:optimizeQuality; fill-rule:evenodd; clip-rule:evenodd" xmlns:xlink="http://www.w3.org/1999/xlink">
<g><path style="opacity:0.963" fill="#020100" d="M 223.5,-0.5 C 244.833,-0.5 266.167,-0.5 287.5,-0.5C 295.495,2.49954 300.829,8.16621 303.5,16.5C 326.578,22.19 348.244,31.19 368.5,43.5C 388.468,32.5054 406.968,34.5054 424,49.5C 434.131,62.0155 437.297,76.0155 433.5,91.5C 457.09,91.5894 473.256,102.589 482,124.5C 486.999,143.339 482.832,159.839 469.5,174C 492.913,179.577 506.913,194.077 511.5,217.5C 511.5,222.833 511.5,228.167 511.5,233.5C 507.623,252.728 496.623,266.395 478.5,274.5C 499.768,292.678 505.935,315.011 497,341.5C 485.356,365.988 466.023,377.321 439,375.5C 448.523,404.242 442.023,428.742 419.5,449C 394.5,465.667 369.5,465.667 344.5,449C 341.667,446.167 338.833,443.333 336,440.5C 329.279,479.343 306.779,503.01 268.5,511.5C 259.833,511.5 251.167,511.5 242.5,511.5C 204.221,503.01 181.721,479.343 175,440.5C 154.674,461.456 130.841,466.623 103.5,456C 80.6803,444.376 68.6803,425.709 67.5,400C 68.2505,391.589 69.7505,383.422 72,375.5C 44.9773,377.321 25.644,365.988 14,341.5C 5.06521,315.011 11.2319,292.678 32.5,274.5C 14.3769,266.395 3.37687,252.728 -0.5,233.5C -0.5,228.167 -0.5,222.833 -0.5,217.5C 4.08669,194.077 18.0867,179.577 41.5,174C 25.2565,155.552 22.7565,135.385 34,113.5C 44.4537,98.2859 58.9537,90.9526 77.5,91.5C 72.4442,66.1109 81.7775,48.2776 105.5,38C 118.654,34.6811 130.988,36.5144 142.5,43.5C 162.647,30.9289 184.314,21.9289 207.5,16.5C 210.171,8.16621 215.505,2.49954 223.5,-0.5 Z M 357.5,81.5 C 358.268,88.1417 360.601,94.1417 364.5,99.5C 361.615,105.362 362.948,110.196 368.5,114C 375.519,118.504 383.186,120.671 391.5,120.5C 383.275,152.217 394.275,174.051 424.5,186C 407.149,203.753 402.983,224.253 412,247.5C 415.491,254.829 420.324,261.162 426.5,266.5C 394.72,281.063 383.054,305.396 391.5,339.5C 356.507,337.231 333.34,352.564 322,385.5C 306.499,363.335 285.332,352.169 258.5,352C 256.266,353.638 254.933,355.805 254.5,358.5C 245.605,358.413 236.938,359.746 228.5,362.5C 226.9,360.061 224.567,358.728 221.5,358.5C 207.822,364.006 196.989,373.006 189,385.5C 177.66,352.564 154.493,337.231 119.5,339.5C 127.924,305.406 116.258,281.072 84.5,266.5C 90.6756,261.162 95.5089,254.829 99,247.5C 101.914,241.64 100.748,236.974 95.5,233.5C 96.9302,226.719 96.5969,220.053 94.5,213.5C 98.2141,211.2 99.7141,207.867 99,203.5C 95.9974,196.831 91.8307,190.998 86.5,186C 116.725,174.051 127.725,152.217 119.5,120.5C 145.303,118.364 158.969,104.364 160.5,78.5C 160.918,70.3376 158.918,62.8376 154.5,56C 171.724,45.2554 190.224,37.4221 210,32.5C 212.981,38.0797 217.481,41.9131 223.5,44C 244.833,44.6667 266.167,44.6667 287.5,44C 293.519,41.9131 298.019,38.0797 301,32.5C 320.776,37.4221 339.276,45.2554 356.5,56C 351.87,62.9974 350.37,70.4974 352,78.5C 353.488,80.16 355.321,81.16 357.5,81.5 Z"/></g>
<g><path style="opacity:1" fill="#fae06e" d="M 227.5,14.5 C 230.833,14.5 234.167,14.5 237.5,14.5C 237.5,19.5 237.5,24.5 237.5,29.5C 233.089,29.979 228.922,29.3124 225,27.5C 222.467,22.3513 223.3,18.018 227.5,14.5 Z"/></g>
<g><path style="opacity:1" fill="#fce26f" d="M 252.5,14.5 C 262.839,14.3335 273.172,14.5002 283.5,15C 286.366,16.3929 287.699,18.7262 287.5,22C 287.717,25.2351 286.383,27.5684 283.5,29C 273.172,29.4998 262.839,29.6665 252.5,29.5C 252.5,24.5 252.5,19.5 252.5,14.5 Z"/></g>
<g><path style="opacity:1" fill="#fce26f" d="M 144.5,72.5 C 143.288,77.5665 140.288,81.3999 135.5,84C 119.016,91.9071 104.349,89.4071 91.5,76.5C 93.6596,61.4171 102.326,53.0837 117.5,51.5C 131.498,52.1734 140.498,59.1734 144.5,72.5 Z"/></g>
<g><path style="opacity:1" fill="#fce26f" d="M 419.5,76.5 C 405.202,90.1633 389.535,91.9967 372.5,82C 370.294,79.9633 368.294,77.7966 366.5,75.5C 368.21,63.6113 374.877,55.7779 386.5,52C 404.798,50.4771 415.798,58.6438 419.5,76.5 Z"/></g>
<g><path style="opacity:0.994" fill="#fba51e" d="M 366.5,75.5 C 368.294,77.7966 370.294,79.9633 372.5,82C 389.535,91.9967 405.202,90.1633 419.5,76.5C 417.867,97.4919 406.534,106.992 385.5,105C 381.6,103.435 377.934,101.435 374.5,99C 371.132,98.4572 367.799,98.6239 364.5,99.5C 360.601,94.1417 358.268,88.1417 357.5,81.5C 361.587,81.072 364.587,79.072 366.5,75.5 Z"/></g>
<g><path style="opacity:1" fill="#f9a51e" d="M 144.5,72.5 C 146.668,92.1091 137.835,103.109 118,105.5C 100.693,103.689 91.8595,94.0224 91.5,76.5C 104.349,89.4071 119.016,91.9071 135.5,84C 140.288,81.3999 143.288,77.5665 144.5,72.5 Z"/></g>
<g><path style="opacity:1" fill="#fde36f" d="M 106.5,134.5 C 90.5822,152.404 72.2489,155.238 51.5,143C 48.2905,140.613 45.2905,138.113 42.5,135.5C 47.7238,113.881 61.3905,104.714 83.5,108C 96.0253,112.687 103.692,121.521 106.5,134.5 Z"/></g>
<g><path style="opacity:1" fill="#fce26f" d="M 468.5,135.5 C 453.45,150.9 436.117,154.066 416.5,145C 411.689,142.351 407.689,138.851 404.5,134.5C 408.46,117.92 418.96,108.586 436,106.5C 453.932,108.268 464.765,117.934 468.5,135.5 Z"/></g>
<g><path style="opacity:1" fill="#fba51e" d="M 106.5,134.5 C 105.792,162.024 91.7924,173.857 64.5,170C 49.2291,163.637 41.8957,152.137 42.5,135.5C 45.2905,138.113 48.2905,140.613 51.5,143C 72.2489,155.238 90.5822,152.404 106.5,134.5 Z"/></g>
<g><path style="opacity:1" fill="#fba51e" d="M 404.5,134.5 C 407.689,138.851 411.689,142.351 416.5,145C 436.117,154.066 453.45,150.9 468.5,135.5C 468.432,156.993 457.765,168.993 436.5,171.5C 414.436,169.043 403.769,156.71 404.5,134.5 Z"/></g>
<g><path style="opacity:1" fill="#fde36f" d="M 90.5,213.5 C 80.0798,232.209 64.0798,240.042 42.5,237C 31.4633,234.158 22.4633,228.325 15.5,219.5C 20.8686,197.651 34.8686,187.484 57.5,189C 70.7675,192.133 80.4342,199.8 86.5,212C 87.745,212.791 89.0783,213.291 90.5,213.5 Z"/></g>
<g><path style="opacity:1" fill="#fde370" d="M 495.5,219.5 C 482.71,234.96 466.377,240.46 446.5,236C 437.255,232.572 429.588,227.072 423.5,219.5C 427.686,200.48 439.52,190.147 459,188.5C 478.73,190.071 490.896,200.405 495.5,219.5 Z"/></g>
<g><path style="opacity:0.996" fill="#fba61e" d="M 90.5,213.5 C 91.8333,213.5 93.1667,213.5 94.5,213.5C 96.5969,220.053 96.9302,226.719 95.5,233.5C 93.369,234.314 91.0356,234.814 88.5,235C 74.9533,262.072 54.9533,268.406 28.5,254C 17.9027,244.692 13.5694,233.192 15.5,219.5C 22.4633,228.325 31.4633,234.158 42.5,237C 64.0798,240.042 80.0798,232.209 90.5,213.5 Z"/></g>
<g><path style="opacity:1" fill="#fba51e" d="M 423.5,219.5 C 429.588,227.072 437.255,232.572 446.5,236C 466.377,240.46 482.71,234.96 495.5,219.5C 497.257,240.118 488.257,253.952 468.5,261C 441.217,263.862 425.884,251.695 422.5,224.5C 422.507,222.631 422.84,220.964 423.5,219.5 Z"/></g>
<g><path style="opacity:1" fill="#fde370" d="M 105.5,310.5 C 102.884,316.962 98.5512,322.129 92.5,326C 68.885,338.684 47.7184,335.518 29,316.5C 27.9055,314.922 27.0722,313.255 26.5,311.5C 32.0396,291.474 45.2062,280.807 66,279.5C 86.6053,280.383 99.772,290.716 105.5,310.5 Z"/></g>
<g><path style="opacity:1" fill="#fde370" d="M 484.5,311.5 C 479.109,321.052 471.109,327.552 460.5,331C 438.678,337.391 420.511,331.891 406,314.5C 405.51,313.207 405.343,311.873 405.5,310.5C 411.041,291.127 423.874,280.794 444,279.5C 465.245,280.521 478.745,291.188 484.5,311.5 Z"/></g>
<g><path style="opacity:1" fill="#fca61e" d="M 105.5,310.5 C 109.437,335.764 99.1034,352.264 74.5,360C 44.3506,362.187 28.0173,348.187 25.5,318C 25.5039,315.639 25.8373,313.473 26.5,311.5C 27.0722,313.255 27.9055,314.922 29,316.5C 47.7184,335.518 68.885,338.684 92.5,326C 98.5512,322.129 102.884,316.962 105.5,310.5 Z"/></g>
<g><path style="opacity:1" fill="#fca61e" d="M 405.5,310.5 C 405.343,311.873 405.51,313.207 406,314.5C 420.511,331.891 438.678,337.391 460.5,331C 471.109,327.552 479.109,321.052 484.5,311.5C 487.612,334.1 478.612,349.933 457.5,359C 431.392,364.365 413.892,354.531 405,329.5C 404.18,322.986 404.347,316.653 405.5,310.5 Z"/></g>
<g><path style="opacity:1" fill="#fde370" d="M 173.5,390.5 C 159.626,410.302 140.626,418.136 116.5,414C 102.694,410.28 92.0272,402.447 84.5,390.5C 90.3102,368.415 104.643,356.415 127.5,354.5C 151.561,355.513 166.895,367.513 173.5,390.5 Z"/></g>
<g><path style="opacity:1" fill="#fde370" d="M 426.5,390.5 C 415.617,406.615 400.284,414.948 380.5,415.5C 361.997,414.09 347.663,405.756 337.5,390.5C 343.349,368.404 357.683,356.404 380.5,354.5C 404.561,355.513 419.895,367.513 426.5,390.5 Z"/></g>
<g><path style="opacity:1" fill="#fee470" d="M 254.5,358.5 C 255.053,361.587 256.72,364.087 259.5,366C 290.351,369.364 310.018,385.864 318.5,415.5C 299.559,444.331 272.892,455.831 238.5,450C 218.406,444.726 203.072,433.226 192.5,415.5C 195.551,401.611 202.551,390.111 213.5,381C 218.03,377.638 222.697,374.471 227.5,371.5C 229.782,368.746 230.115,365.746 228.5,362.5C 236.938,359.746 245.605,358.413 254.5,358.5 Z"/></g>
<g><path style="opacity:1" fill="#fca61e" d="M 84.5,390.5 C 92.0272,402.447 102.694,410.28 116.5,414C 140.626,418.136 159.626,410.302 173.5,390.5C 176.896,418.184 165.23,436.35 138.5,445C 115.064,448.199 97.897,439.366 87,418.5C 83.6067,409.241 82.7734,399.907 84.5,390.5 Z"/></g>
<g><path style="opacity:1" fill="#fca61e" d="M 337.5,390.5 C 347.663,405.756 361.997,414.09 380.5,415.5C 400.284,414.948 415.617,406.615 426.5,390.5C 429.902,418.171 418.235,436.337 391.5,445C 364.413,448.383 346.58,437.216 338,411.5C 336.418,404.372 336.251,397.372 337.5,390.5 Z"/></g>
<g><path style="opacity:1" fill="#fda71e" d="M 192.5,415.5 C 203.072,433.226 218.406,444.726 238.5,450C 272.892,455.831 299.559,444.331 318.5,415.5C 325.077,450.845 312.077,476.345 279.5,492C 242.758,502.875 214.924,491.708 196,458.5C 190.242,444.381 189.076,430.048 192.5,415.5 Z"/></g>
</svg>
