<svg xmlns="http://www.w3.org/2000/svg" version="1.1" width="512px" height="512px" style="shape-rendering:geometricPrecision; text-rendering:geometricPrecision; image-rendering:optimizeQuality; fill-rule:evenodd; clip-rule:evenodd">
<g><path style="opacity:0.997" fill="#f4b71b" d="M 233.5,5.5 C 319.661,0.589432 391.161,30.2561 448,94.5C 502.367,163.662 518.367,240.995 496,326.5C 468.167,411.667 411.667,468.167 326.5,496C 240.991,518.366 163.658,502.366 94.5,448C 23.427,384.467 -5.07297,305.3 9,210.5C 25.8937,128.482 71.3937,68.3154 145.5,30C 173.562,16.8211 202.895,8.6544 233.5,5.5 Z"/></g>
<g><path style="opacity:1" fill="#fdfefd" d="M 98.5,120.5 C 102.273,119.822 105.106,121.156 107,124.5C 106.221,141.205 108.221,157.538 113,173.5C 114.455,176.912 116.288,180.079 118.5,183C 127.972,184.448 131.972,189.781 130.5,199C 123.095,198.869 117.095,201.703 112.5,207.5C 105.937,202.815 104.27,196.815 107.5,189.5C 98.0327,173.347 93.6994,155.847 94.5,137C 94.6667,133.167 94.8333,129.333 95,125.5C 95.9973,123.677 97.1639,122.01 98.5,120.5 Z"/></g>
<g><path style="opacity:1" fill="#fdfefd" d="M 407.5,120.5 C 411.493,120.245 414.326,121.911 416,125.5C 417.081,139.977 416.081,154.31 413,168.5C 410.892,175.996 407.725,182.996 403.5,189.5C 406.108,194.218 405.941,198.885 403,203.5C 401.883,205.124 400.383,206.124 398.5,206.5C 395.72,204.897 393.054,203.063 390.5,201C 377.606,199.807 375.939,194.473 385.5,185C 387.715,183.956 390.048,183.29 392.5,183C 398.784,173.481 402.284,162.981 403,151.5C 403.333,142.5 403.667,133.5 404,124.5C 405.376,123.295 406.542,121.962 407.5,120.5 Z"/></g>
<g><path style="opacity:1" fill="#fdfefd" d="M 124.5,206.5 C 135.191,205.319 140.858,209.986 141.5,220.5C 134.889,221.138 129.889,224.305 126.5,230C 122.835,230.387 120.002,228.887 118,225.5C 114.501,217.175 116.668,210.841 124.5,206.5 Z"/></g>
<g><path style="opacity:1" fill="#fdfefd" d="M 377.5,206.5 C 391.047,206.201 396.213,212.534 393,225.5C 390.996,228.09 388.496,230.09 385.5,231.5C 382.228,224.862 376.894,221.195 369.5,220.5C 369.214,214.125 371.88,209.459 377.5,206.5 Z"/></g>
<g><path style="opacity:1" fill="#fdfefd" d="M 139.5,227.5 C 148.926,226.366 154.593,230.366 156.5,239.5C 149.719,240.942 145.052,244.942 142.5,251.5C 138.492,252.59 135.325,251.256 133,247.5C 128.602,238.642 130.769,231.975 139.5,227.5 Z"/></g>
<g><path style="opacity:1" fill="#fdfefd" d="M 362.5,227.5 C 377.421,226.9 382.588,233.567 378,247.5C 375.822,249.924 373.155,251.59 370,252.5C 367.525,249.353 365.025,246.186 362.5,243C 360.182,241.007 357.516,239.841 354.5,239.5C 355.206,234.138 357.873,230.138 362.5,227.5 Z"/></g>
<g><path style="opacity:1" fill="#fdfefd" d="M 157.5,245.5 C 165.024,244.49 170.357,247.323 173.5,254C 167.609,258.05 163.943,263.55 162.5,270.5C 152.437,269.933 147.937,264.6 149,254.5C 150.688,250.315 153.521,247.315 157.5,245.5 Z"/></g>
<g><path style="opacity:1" fill="#fdfefd" d="M 345.5,245.5 C 359.954,245.445 364.788,252.111 360,265.5C 357.181,269.493 353.347,271.16 348.5,270.5C 347.057,263.55 343.391,258.05 337.5,254C 339.007,249.995 341.674,247.161 345.5,245.5 Z"/></g>
<g><path style="opacity:1" fill="#fdfefd" d="M 177.5,260.5 C 181.605,260.234 185.605,260.734 189.5,262C 191.227,263.389 192.561,265.056 193.5,267C 190.229,270.283 187.729,274.116 186,278.5C 185.503,280.81 185.337,283.143 185.5,285.5C 171.769,285.034 167.269,278.368 172,265.5C 173.73,263.598 175.563,261.931 177.5,260.5 Z"/></g>
<g><path style="opacity:1" fill="#fdfefd" d="M 323.5,260.5 C 335.664,259.17 341.497,264.504 341,276.5C 338.073,283.218 332.906,286.218 325.5,285.5C 325.663,283.143 325.497,280.81 325,278.5C 323.271,274.116 320.771,270.283 317.5,267C 319.014,264.322 321.014,262.155 323.5,260.5 Z"/></g>
<g><path style="opacity:1" fill="#fdfefd" d="M 200.5,271.5 C 203.85,271.335 207.183,271.502 210.5,272C 212.64,272.973 214.307,274.473 215.5,276.5C 213.747,279.005 212.247,281.671 211,284.5C 212.596,296.448 208.096,299.615 197.5,294C 190.186,285.384 191.186,277.884 200.5,271.5 Z"/></g>
<g><path style="opacity:1" fill="#fdfefd" d="M 300.5,271.5 C 313.955,270.449 319.455,276.449 317,289.5C 313.146,295.451 307.813,297.451 301,295.5C 301.621,288.407 299.788,282.074 295.5,276.5C 296.882,274.451 298.548,272.785 300.5,271.5 Z"/></g>
<g><path style="opacity:1" fill="#fdfefd" d="M 226.5,277.5 C 231.545,276.6 235.545,278.1 238.5,282C 234.964,287.993 234.63,294.159 237.5,300.5C 232.074,304.52 226.74,304.353 221.5,300C 214.865,290.515 216.532,283.015 226.5,277.5 Z"/></g>
<g><path style="opacity:1" fill="#fdfefd" d="M 277.5,277.5 C 291.604,278.38 296.104,285.38 291,298.5C 285.636,304.036 279.803,304.703 273.5,300.5C 276.434,294.142 276.1,287.976 272.5,282C 273.761,280.038 275.428,278.538 277.5,277.5 Z"/></g>
<g><path style="opacity:1" fill="#fdfefd" d="M 252.5,279.5 C 264.8,280.286 269.634,286.62 267,298.5C 266,300.833 264.333,302.5 262,303.5C 261.333,310.5 261.333,317.5 262,324.5C 274.03,315.587 284.697,316.92 294,328.5C 296.924,335.011 297.258,341.678 295,348.5C 286.748,366.919 273.581,380.585 255.5,389.5C 238.822,380.741 225.988,368.075 217,351.5C 213.353,342.969 213.686,334.636 218,326.5C 227.668,316.586 238.001,315.919 249,324.5C 249.667,317.5 249.667,310.5 249,303.5C 239.62,294.105 240.786,286.105 252.5,279.5 Z"/></g>
</svg>
