<?xml version="1.0" encoding="UTF-8"?>
<!DOCTYPE svg PUBLIC "-//W3C//DTD SVG 1.1//EN" "http://www.w3.org/Graphics/SVG/1.1/DTD/svg11.dtd">
<svg xmlns="http://www.w3.org/2000/svg" version="1.1" width="512px" height="512px" style="shape-rendering:geometricPrecision; text-rendering:geometricPrecision; image-rendering:optimizeQuality; fill-rule:evenodd; clip-rule:evenodd" xmlns:xlink="http://www.w3.org/1999/xlink">
<g><path style="opacity:0.954" fill="#010101" d="M 285.5,4.5 C 319.185,1.57792 341.685,15.9112 353,47.5C 354.505,56.113 354.839,64.7797 354,73.5C 352.816,77.8938 351.816,82.2272 351,86.5C 418.274,112.356 456.941,161.023 467,232.5C 467.57,245.866 467.57,259.199 467,272.5C 474.529,270.695 477.529,273.695 476,281.5C 470.5,287 465,292.5 459.5,298C 454.525,299.645 451.025,298.145 449,293.5C 446.115,287.232 443.948,280.732 442.5,274C 443.761,267.369 447.261,265.869 453,269.5C 459.12,205.147 435.953,154.314 383.5,117C 371.178,109.09 358.012,102.923 344,98.5C 338.845,102.987 333.678,107.487 328.5,112C 322.175,115.663 315.509,118.496 308.5,120.5C 345.673,141.254 383.006,161.754 420.5,182C 427.138,186.017 429.304,191.85 427,199.5C 425.437,202.728 422.937,204.895 419.5,206C 410.173,206.5 400.839,206.666 391.5,206.5C 391.5,230.833 391.5,255.167 391.5,279.5C 420.326,284.159 437.492,300.826 443,329.5C 445.398,361.555 431.565,383.055 401.5,394C 395.893,395.323 390.226,396.323 384.5,397C 367.826,406.614 350.159,413.78 331.5,418.5C 332.671,422.482 332.671,426.482 331.5,430.5C 363.023,419.407 393.356,405.574 422.5,389C 433.139,385.282 442.972,386.782 452,393.5C 458.969,403.222 459.303,413.222 453,423.5C 449.869,427.633 446.369,431.466 442.5,435C 405.473,463.855 364.806,486.522 320.5,503C 290.185,507.579 259.852,507.579 229.5,503C 200.167,497.667 170.833,492.333 141.5,487C 129.897,485.137 118.23,483.97 106.5,483.5C 104.958,491.55 100.292,497.05 92.5,500C 75.2016,501.562 57.8683,501.895 40.5,501C 38.0694,500.705 36.236,499.538 35,497.5C 34.3333,447.5 34.3333,397.5 35,347.5C 35.8333,346.667 36.6667,345.833 37.5,345C 55.5,344.333 73.5,344.333 91.5,345C 99.8354,347.501 104.835,353.001 106.5,361.5C 124.818,359.668 143.151,357.835 161.5,356C 132.144,318.084 120.477,275.251 126.5,227.5C 124.098,227.478 121.432,227.311 118.5,227C 115.346,224.225 114.846,221.058 117,217.5C 122.5,212 128,206.5 133.5,201C 136.588,200.153 139.421,200.653 142,202.5C 145.403,209.969 148.236,217.636 150.5,225.5C 149.422,231.095 146.088,232.928 140.5,231C 133.754,276.66 146.087,317.826 177.5,354.5C 189.296,354.965 200.629,357.465 211.5,362C 229.932,372.767 248.599,383.101 267.5,393C 272.03,394.632 276.696,395.632 281.5,396C 291.5,396.333 301.5,396.667 311.5,397C 317.155,398.823 322.155,401.657 326.5,405.5C 339.351,402.827 351.685,398.661 363.5,393C 340.63,382.419 328.297,364.586 326.5,339.5C 278.166,339.667 229.832,339.5 181.5,339C 177.307,337.474 174.474,334.641 173,330.5C 172.333,323.833 172.333,317.167 173,310.5C 174.167,306.667 176.667,304.167 180.5,303C 187.492,302.5 194.492,302.334 201.5,302.5C 201.5,270.5 201.5,238.5 201.5,206.5C 191.062,206.951 180.729,206.451 170.5,205C 161.406,194.69 163.073,186.356 175.5,180C 211.994,160.254 248.327,140.254 284.5,120C 270.249,116.793 258.416,109.626 249,98.5C 203.354,114.057 170.187,143.557 149.5,187C 142.083,189.185 138.916,186.352 140,178.5C 161.49,133.679 195.657,102.846 242.5,86C 232.293,57.8237 238.626,34.157 261.5,15C 268.995,10.0799 276.995,6.57985 285.5,4.5 Z"/></g>
<g><path style="opacity:1" fill="#54e754" d="M 325.5,27.5 C 329.754,33.6707 333.254,40.3374 336,47.5C 341.039,66.1709 337.206,82.6709 324.5,97C 324.728,97.3988 325.062,97.5654 325.5,97.5C 319.907,102.799 313.24,106.299 305.5,108C 277.701,110.856 259.535,99.0224 251,72.5C 247.416,47.1611 257.249,29.3277 280.5,19C 293.542,15.1697 306.209,16.1697 318.5,22C 321.02,23.6971 323.353,25.5305 325.5,27.5 Z"/></g>
<g><path style="opacity:1" fill="#030702" d="M 274.5,28.5 C 289.994,27.8282 296.494,35.1615 294,50.5C 287.638,62.6267 278.971,64.6267 268,56.5C 264.669,50.6185 263.669,44.2851 265,37.5C 267.406,33.5915 270.572,30.5915 274.5,28.5 Z"/></g>
<g><path style="opacity:1" fill="#020602" d="M 308.5,30.5 C 314.83,29.6662 317.663,32.3329 317,38.5C 306.667,56.5 296.333,74.5 286,92.5C 282.582,96.3673 279.249,96.3673 276,92.5C 275.333,90.1667 275.333,87.8333 276,85.5C 286.845,67.1391 297.678,48.8057 308.5,30.5 Z"/></g>
<g><path style="opacity:1" fill="#2bca2b" d="M 325.5,27.5 C 342.724,42.738 346.891,61.0713 338,82.5C 335.015,88.6369 330.849,93.6369 325.5,97.5C 325.062,97.5654 324.728,97.3988 324.5,97C 337.206,82.6709 341.039,66.1709 336,47.5C 333.254,40.3374 329.754,33.6707 325.5,27.5 Z"/></g>
<g><path style="opacity:1" fill="#52e152" d="M 277.5,40.5 C 282.213,40.4676 283.713,42.8009 282,47.5C 280.604,49.5268 278.938,49.8602 277,48.5C 276.278,45.7395 276.445,43.0728 277.5,40.5 Z"/></g>
<g><path style="opacity:1" fill="#020401" d="M 307.5,64.5 C 324.658,63.8104 331.158,71.8104 327,88.5C 322.464,95.8438 315.964,98.3438 307.5,96C 299.227,91.2114 296.394,84.0447 299,74.5C 300.978,70.3619 303.811,67.0286 307.5,64.5 Z"/></g>
<g><path style="opacity:1" fill="#4dd24d" d="M 310.5,76.5 C 316.067,75.7532 317.9,78.0866 316,83.5C 314,86.1667 312,86.1667 310,83.5C 309.444,81.1152 309.61,78.7819 310.5,76.5 Z"/></g>
<g><path style="opacity:1" fill="#a5a5ca" d="M 383.5,194.5 C 389.31,193.51 395.31,193.177 401.5,193.5C 401.703,191.61 401.037,190.11 399.5,189C 365.179,170.841 331.179,152.174 297.5,133C 295.655,131.872 293.655,131.372 291.5,131.5C 294.261,129.06 297.261,128.893 300.5,131C 338.994,151.746 377.327,172.746 415.5,194C 404.839,194.5 394.172,194.667 383.5,194.5 Z"/></g>
<g><path style="opacity:1" fill="#cfcfee" d="M 291.5,131.5 C 293.655,131.372 295.655,131.872 297.5,133C 331.179,152.174 365.179,170.841 399.5,189C 401.037,190.11 401.703,191.61 401.5,193.5C 395.31,193.177 389.31,193.51 383.5,194.5C 380.438,195.268 378.772,197.268 378.5,200.5C 376.167,200.5 373.833,200.5 371.5,200.5C 371.5,227.167 371.5,253.833 371.5,280.5C 358.695,284.408 348.029,291.575 339.5,302C 320.17,302.5 300.836,302.667 281.5,302.5C 281.178,280.758 281.512,259.091 282.5,237.5C 288.228,235.023 288.895,231.523 284.5,227C 263.167,226.333 241.833,226.333 220.5,227C 217.652,230.893 217.985,234.393 221.5,237.5C 221.5,259.167 221.5,280.833 221.5,302.5C 218.833,302.5 216.167,302.5 213.5,302.5C 213.667,267.498 213.5,232.498 213,197.5C 211.871,195.859 210.371,194.859 208.5,194.5C 198.833,193.833 189.167,193.167 179.5,192.5C 216.54,171.646 253.874,151.313 291.5,131.5 Z"/></g>
<g><path style="opacity:1" fill="#060606" d="M 291.5,144.5 C 312.898,145.369 321.065,156.036 316,176.5C 310.167,186.854 301.334,190.688 289.5,188C 276.159,181.813 271.659,171.646 276,157.5C 279.818,151.512 284.984,147.179 291.5,144.5 Z"/></g>
<g><path style="opacity:1" fill="#ececf7" d="M 293.5,156.5 C 305.129,157.278 308.629,162.944 304,173.5C 300.319,176.36 296.152,177.193 291.5,176C 286.919,172.562 285.419,168.062 287,162.5C 288.494,159.686 290.66,157.686 293.5,156.5 Z"/></g>
<g><path style="opacity:1" fill="#8b8ba1" d="M 179.5,192.5 C 189.167,193.167 198.833,193.833 208.5,194.5C 198.161,194.666 187.828,194.5 177.5,194C 178.044,193.283 178.711,192.783 179.5,192.5 Z"/></g>
<g><path style="opacity:1" fill="#060606" d="M 303.5,194.5 C 324.213,194.178 344.879,194.512 365.5,195.5C 366.192,196.025 366.692,196.692 367,197.5C 367.167,202.5 367.333,207.5 367.5,212.5C 367.621,218.273 367.121,223.939 366,229.5C 365.25,230.126 364.416,230.626 363.5,231C 353.667,231.167 343.833,231.333 334,231.5C 323.406,231.644 312.906,231.144 302.5,230C 302,229.5 301.5,229 301,228.5C 300.333,218.167 300.333,207.833 301,197.5C 301.698,196.309 302.531,195.309 303.5,194.5 Z"/></g>
<g><path style="opacity:1" fill="#adadd5" d="M 378.5,200.5 C 378.5,227.167 378.5,253.833 378.5,280.5C 376.167,280.5 373.833,280.5 371.5,280.5C 371.5,253.833 371.5,227.167 371.5,200.5C 373.833,200.5 376.167,200.5 378.5,200.5 Z"/></g>
<g><path style="opacity:1" fill="#7b7b80" d="M 312.5,206.5 C 312.5,210.5 312.5,214.5 312.5,218.5C 317.5,218.5 322.5,218.5 327.5,218.5C 327.5,214.5 327.5,210.5 327.5,206.5C 328.485,210.634 328.818,214.968 328.5,219.5C 322.833,219.5 317.167,219.5 311.5,219.5C 311.182,214.968 311.515,210.634 312.5,206.5 Z"/></g>
<g><path style="opacity:1" fill="#f2f3fe" d="M 312.5,206.5 C 317.5,206.5 322.5,206.5 327.5,206.5C 327.5,210.5 327.5,214.5 327.5,218.5C 322.5,218.5 317.5,218.5 312.5,218.5C 312.5,214.5 312.5,210.5 312.5,206.5 Z"/></g>
<g><path style="opacity:1" fill="#7a7a7f" d="M 340.5,206.5 C 340.5,210.5 340.5,214.5 340.5,218.5C 345.5,218.5 350.5,218.5 355.5,218.5C 355.5,214.5 355.5,210.5 355.5,206.5C 356.485,210.634 356.818,214.968 356.5,219.5C 350.833,219.5 345.167,219.5 339.5,219.5C 339.182,214.968 339.515,210.634 340.5,206.5 Z"/></g>
<g><path style="opacity:1" fill="#f2f3fe" d="M 340.5,206.5 C 345.5,206.5 350.5,206.5 355.5,206.5C 355.5,210.5 355.5,214.5 355.5,218.5C 350.5,218.5 345.5,218.5 340.5,218.5C 340.5,214.5 340.5,210.5 340.5,206.5 Z"/></g>
<g><path style="opacity:1" fill="#b0b0d7" d="M 221.5,237.5 C 222.5,237.5 223.5,237.5 224.5,237.5C 224.5,259.167 224.5,280.833 224.5,302.5C 223.5,302.5 222.5,302.5 221.5,302.5C 221.5,280.833 221.5,259.167 221.5,237.5 Z"/></g>
<g><path style="opacity:1" fill="#f1f1fd" d="M 236.5,238.5 C 247.167,238.5 257.833,238.5 268.5,238.5C 268.5,259.833 268.5,281.167 268.5,302.5C 257.833,302.5 247.167,302.5 236.5,302.5C 236.5,281.167 236.5,259.833 236.5,238.5 Z"/></g>
<g><path style="opacity:1" fill="#727278" d="M 236.5,238.5 C 247.321,237.505 258.321,237.172 269.5,237.5C 269.831,259.34 269.497,281.006 268.5,302.5C 268.5,281.167 268.5,259.833 268.5,238.5C 257.833,238.5 247.167,238.5 236.5,238.5 Z"/></g>
<g><path style="opacity:1" fill="#707081" d="M 282.5,237.5 C 281.512,259.091 281.178,280.758 281.5,302.5C 280.833,291.839 280.5,281.005 280.5,270C 280.501,258.812 281.168,247.979 282.5,237.5 Z"/></g>
<g><path style="opacity:1" fill="#f2be2b" d="M 376.5,291.5 C 397.313,289.659 413.479,297.325 425,314.5C 436.674,339.482 431.508,360.316 409.5,377C 384.116,389.859 362.949,385.026 346,362.5C 333.114,337.595 337.614,316.428 359.5,299C 365.032,295.894 370.699,293.394 376.5,291.5 Z"/></g>
<g><path style="opacity:1" fill="#f4a900" d="M 387.5,297.5 C 387.5,297.167 387.5,296.833 387.5,296.5C 407.824,298.747 420.657,309.747 426,329.5C 428.248,356.189 416.415,372.689 390.5,379C 386.311,379.812 382.311,379.645 378.5,378.5C 379.833,378.5 381.167,378.5 382.5,378.5C 388.861,378.97 391.694,375.97 391,369.5C 395.881,368.372 400.381,366.372 404.5,363.5C 410.41,356.492 410.91,349.159 406,341.5C 401.67,337.919 396.837,335.252 391.5,333.5C 391.181,328.637 391.514,323.97 392.5,319.5C 396.014,320.849 398.347,323.349 399.5,327C 406.684,329.654 409.851,327.154 409,319.5C 405.47,312.144 399.637,307.81 391.5,306.5C 390.686,304.234 390.186,301.9 390,299.5C 389.292,298.619 388.458,297.953 387.5,297.5 Z"/></g>
<g><path style="opacity:1" fill="#030200" d="M 387.5,297.5 C 388.458,297.953 389.292,298.619 390,299.5C 390.186,301.9 390.686,304.234 391.5,306.5C 399.637,307.81 405.47,312.144 409,319.5C 409.851,327.154 406.684,329.654 399.5,327C 398.347,323.349 396.014,320.849 392.5,319.5C 392.44,318.957 392.107,318.624 391.5,318.5C 390.186,323.652 390.186,328.652 391.5,333.5C 396.837,335.252 401.67,337.919 406,341.5C 410.91,349.159 410.41,356.492 404.5,363.5C 400.381,366.372 395.881,368.372 391,369.5C 391.694,375.97 388.861,378.97 382.5,378.5C 382.158,377.662 381.492,377.328 380.5,377.5C 379.701,374.57 379.368,371.57 379.5,368.5C 369.295,367.462 362.961,361.962 360.5,352C 361.308,346.795 364.308,345.128 369.5,347C 371.041,348.579 372.208,350.413 373,352.5C 374.129,354.141 375.629,355.141 377.5,355.5C 377.56,356.043 377.893,356.376 378.5,356.5C 379.812,351.682 379.812,347.015 378.5,342.5C 362.558,337.956 358.058,328.29 365,313.5C 368.866,309.983 373.366,307.65 378.5,306.5C 379.474,304.257 379.808,301.924 379.5,299.5C 381.82,297.774 384.487,297.107 387.5,297.5 Z"/></g>
<g><path style="opacity:1" fill="#f09b01" d="M 387.5,296.5 C 387.5,296.833 387.5,297.167 387.5,297.5C 384.487,297.107 381.82,297.774 379.5,299.5C 377.274,298.441 374.941,298.608 372.5,300C 347.644,315.922 342.478,336.756 357,362.5C 363.164,370.173 370.998,375.173 380.5,377.5C 381.492,377.328 382.158,377.662 382.5,378.5C 381.167,378.5 379.833,378.5 378.5,378.5C 361.221,375.39 350.054,365.39 345,348.5C 340.767,324.394 349.933,307.56 372.5,298C 377.42,296.75 382.42,296.25 387.5,296.5 Z"/></g>
<g><path style="opacity:1" fill="#f2a700" d="M 379.5,299.5 C 379.808,301.924 379.474,304.257 378.5,306.5C 373.366,307.65 368.866,309.983 365,313.5C 358.058,328.29 362.558,337.956 378.5,342.5C 378.818,347.032 378.485,351.366 377.5,355.5C 375.629,355.141 374.129,354.141 373,352.5C 372.208,350.413 371.041,348.579 369.5,347C 364.308,345.128 361.308,346.795 360.5,352C 362.961,361.962 369.295,367.462 379.5,368.5C 379.368,371.57 379.701,374.57 380.5,377.5C 370.998,375.173 363.164,370.173 357,362.5C 342.478,336.756 347.644,315.922 372.5,300C 374.941,298.608 377.274,298.441 379.5,299.5 Z"/></g>
<g><path style="opacity:1" fill="#8f9bd0" d="M 330.5,316.5 C 329.629,319.112 328.963,321.779 328.5,324.5C 280.833,324.5 233.167,324.5 185.5,324.5C 185.5,321.5 185.5,318.5 185.5,315.5C 234.003,315.168 282.336,315.501 330.5,316.5 Z"/></g>
<g><path style="opacity:1" fill="#eca300" d="M 377.5,319.5 C 378.833,322.833 378.833,326.167 377.5,329.5C 373.746,328.135 372.579,325.468 374,321.5C 374.816,320.177 375.983,319.511 377.5,319.5 Z"/></g>
<g><path style="opacity:1" fill="#6a4900" d="M 377.5,319.5 C 377.56,318.957 377.893,318.624 378.5,318.5C 379.833,322.5 379.833,326.5 378.5,330.5C 377.893,330.376 377.56,330.043 377.5,329.5C 378.833,326.167 378.833,322.833 377.5,319.5 Z"/></g>
<g><path style="opacity:1" fill="#835a00" d="M 392.5,319.5 C 391.514,323.97 391.181,328.637 391.5,333.5C 390.186,328.652 390.186,323.652 391.5,318.5C 392.107,318.624 392.44,318.957 392.5,319.5 Z"/></g>
<g><path style="opacity:1" fill="#6c77a7" d="M 330.5,316.5 C 282.336,315.501 234.003,315.168 185.5,315.5C 185.5,318.5 185.5,321.5 185.5,324.5C 233.167,324.5 280.833,324.5 328.5,324.5C 328.586,325.496 328.252,326.329 327.5,327C 279.834,327.5 232.168,327.667 184.5,327.5C 184.5,323.167 184.5,318.833 184.5,314.5C 233.505,314.167 282.505,314.5 331.5,315.5C 331.376,316.107 331.043,316.44 330.5,316.5 Z"/></g>
<g><path style="opacity:1" fill="#745000" d="M 378.5,342.5 C 379.812,347.015 379.812,351.682 378.5,356.5C 377.893,356.376 377.56,356.043 377.5,355.5C 378.485,351.366 378.818,347.032 378.5,342.5 Z"/></g>
<g><path style="opacity:1" fill="#7b5500" d="M 391.5,346.5 C 391.187,350.042 391.521,353.375 392.5,356.5C 392.44,357.043 392.107,357.376 391.5,357.5C 390.192,353.685 390.192,350.019 391.5,346.5 Z"/></g>
<g><path style="opacity:1" fill="#eba200" d="M 391.5,346.5 C 396.823,347.302 398.489,350.135 396.5,355C 395.255,355.791 393.922,356.291 392.5,356.5C 391.521,353.375 391.187,350.042 391.5,346.5 Z"/></g>
<g><path style="opacity:1" fill="#377eb5" d="M 87.5,357.5 C 74.1667,357.5 60.8333,357.5 47.5,357.5C 47.5,399.167 47.5,440.833 47.5,482.5C 47.5,484.5 47.5,486.5 47.5,488.5C 46.5013,444.67 46.168,400.67 46.5,356.5C 60.3435,356.171 74.0102,356.504 87.5,357.5 Z"/></g>
<g><path style="opacity:1" fill="#4db0fa" d="M 87.5,357.5 C 87.5,390.167 87.5,422.833 87.5,455.5C 82.5593,447.229 75.226,444.062 65.5,446C 52.8166,452.317 49.9833,461.817 57,474.5C 68.5635,483.461 78.7301,482.128 87.5,470.5C 86.944,476.225 83.944,480.058 78.5,482C 68.172,482.5 57.8387,482.666 47.5,482.5C 47.5,440.833 47.5,399.167 47.5,357.5C 60.8333,357.5 74.1667,357.5 87.5,357.5 Z"/></g>
<g><path style="opacity:1" fill="#2a93fb" d="M 87.5,357.5 C 90.6748,357.84 92.8415,359.507 94,362.5C 94.6667,402.5 94.6667,442.5 94,482.5C 92.7402,485.428 90.5735,487.261 87.5,488C 74.1708,488.5 60.8375,488.667 47.5,488.5C 47.5,486.5 47.5,484.5 47.5,482.5C 57.8387,482.666 68.172,482.5 78.5,482C 83.944,480.058 86.944,476.225 87.5,470.5C 88.8333,465.5 88.8333,460.5 87.5,455.5C 87.5,422.833 87.5,390.167 87.5,357.5 Z"/></g>
<g><path style="opacity:1" fill="#fbd6ac" d="M 318.5,418.5 C 317.011,422.153 314.344,424.653 310.5,426C 301.197,429.734 291.53,431.567 281.5,431.5C 257.581,431.016 234.914,425.516 213.5,415C 202.957,413.205 199.124,417.372 202,427.5C 203.774,428.965 205.608,430.298 207.5,431.5C 207.511,433.017 208.177,434.184 209.5,435C 221.402,441.635 234.068,446.302 247.5,449C 273.044,455.475 298.377,454.808 323.5,447C 359.163,434.669 393.496,419.336 426.5,401C 431.984,398.852 437.317,399.185 442.5,402C 443.252,402.671 443.586,403.504 443.5,404.5C 441.78,407.731 439.447,410.564 436.5,413C 401.057,440.039 362.39,461.706 320.5,478C 294.29,483.129 267.957,483.796 241.5,480C 205.047,474.175 168.714,467.842 132.5,461C 124.163,460.098 115.83,459.265 107.5,458.5C 107.5,430.167 107.5,401.833 107.5,373.5C 134.446,370.611 161.446,368.777 188.5,368C 194.212,369.511 199.879,371.178 205.5,373C 219.997,381.081 234.331,389.414 248.5,398C 266.939,407.746 286.606,411.413 307.5,409C 312.893,410.336 316.559,413.503 318.5,418.5 Z"/></g>
<g><path style="opacity:1" fill="#ebbe92" d="M 107.5,373.5 C 107.5,401.833 107.5,430.167 107.5,458.5C 115.83,459.265 124.163,460.098 132.5,461C 168.714,467.842 205.047,474.175 241.5,480C 267.957,483.796 294.29,483.129 320.5,478C 362.39,461.706 401.057,440.039 436.5,413C 439.447,410.564 441.78,407.731 443.5,404.5C 444.774,408.074 444.607,411.741 443,415.5C 438.5,421.333 433.333,426.5 427.5,431C 396.853,452.931 364.186,471.597 329.5,487C 312.102,492.268 294.268,494.768 276,494.5C 266.474,494.456 256.974,493.956 247.5,493C 215.338,488.234 183.338,482.568 151.5,476C 136.926,473.554 122.259,471.887 107.5,471C 106.168,438.402 106.168,405.902 107.5,373.5 Z"/></g>
<g><path style="opacity:1" fill="#ecbf92" d="M 318.5,418.5 C 321.123,427.428 318.123,433.928 309.5,438C 305.943,439.408 302.276,440.408 298.5,441C 268.546,442.912 240.046,437.412 213,424.5C 208.788,424.912 206.954,427.246 207.5,431.5C 205.608,430.298 203.774,428.965 202,427.5C 199.124,417.372 202.957,413.205 213.5,415C 234.914,425.516 257.581,431.016 281.5,431.5C 291.53,431.567 301.197,429.734 310.5,426C 314.344,424.653 317.011,422.153 318.5,418.5 Z"/></g>
<g><path style="opacity:1" fill="#020306" d="M 87.5,455.5 C 88.8333,460.5 88.8333,465.5 87.5,470.5C 78.7301,482.128 68.5635,483.461 57,474.5C 49.9833,461.817 52.8166,452.317 65.5,446C 75.226,444.062 82.5593,447.229 87.5,455.5 Z"/></g>
<g><path style="opacity:1" fill="#005ed2" d="M 67.5,457.5 C 75.8412,456.873 78.1746,460.207 74.5,467.5C 65.4193,469.192 63.0859,465.858 67.5,457.5 Z"/></g>
</svg>
