<svg xmlns="http://www.w3.org/2000/svg" version="1.1" width="512px" height="512px" style="shape-rendering:geometricPrecision; text-rendering:geometricPrecision; image-rendering:optimizeQuality; fill-rule:evenodd; clip-rule:evenodd">
<g><path style="opacity:0.998" fill="#f26946" d="M 233.5,5.5 C 319.661,0.589432 391.161,30.2561 448,94.5C 502.367,163.662 518.367,240.995 496,326.5C 468.167,411.667 411.667,468.167 326.5,496C 240.991,518.366 163.658,502.366 94.5,448C 23.427,384.467 -5.07297,305.3 9,210.5C 25.8937,128.482 71.3937,68.3154 145.5,30C 173.562,16.8211 202.895,8.6544 233.5,5.5 Z"/></g>
<g><path style="opacity:1" fill="#fdfefd" d="M 263.5,94.5 C 268.952,94.1437 272.785,96.477 275,101.5C 285.864,99.0302 290.198,103.363 288,114.5C 285.459,121.289 282.626,127.956 279.5,134.5C 270.5,135.833 261.5,135.833 252.5,134.5C 247.905,126.815 244.572,118.649 242.5,110C 243.859,101.817 248.526,98.9841 256.5,101.5C 258.548,98.785 260.882,96.4517 263.5,94.5 Z"/></g>
<g><path style="opacity:1" fill="#fdfefd" d="M 241.5,142.5 C 257.503,142.333 273.503,142.5 289.5,143C 293.629,145.631 294.462,149.131 292,153.5C 291.25,154.126 290.416,154.626 289.5,155C 273.5,155.667 257.5,155.667 241.5,155C 236.247,150.789 236.247,146.623 241.5,142.5 Z"/></g>
<g><path style="opacity:1" fill="#fdfefd" d="M 243.5,162.5 C 258.17,162.333 272.837,162.5 287.5,163C 306.307,180.775 318.807,202.275 325,227.5C 329.262,260.5 315.429,281.334 283.5,290C 256.315,296.251 233.148,289.418 214,269.5C 205.484,255.21 203.151,239.877 207,223.5C 213.606,199.752 225.773,179.419 243.5,162.5 Z"/></g>
<g><path style="opacity:1" fill="#f26946" d="M 258.5,252.5 C 258.56,253.043 258.893,253.376 259.5,253.5C 260.821,244.675 260.821,236.009 259.5,227.5C 248.004,225.034 242.671,217.868 243.5,206C 243.678,194.325 249.345,186.825 260.5,183.5C 260.26,180.421 260.593,177.421 261.5,174.5C 263.996,172.047 266.662,171.88 269.5,174C 270.282,176.74 270.782,179.574 271,182.5C 279.328,184.827 285.162,189.994 288.5,198C 287.938,201.395 285.938,203.229 282.5,203.5C 278.969,200.835 275.636,197.835 272.5,194.5C 271.502,203.141 271.169,211.808 271.5,220.5C 284.783,224.039 290.283,232.706 288,246.5C 285.433,255.232 279.933,261.232 271.5,264.5C 270.984,268.05 269.984,271.383 268.5,274.5C 265.42,276.105 262.92,275.438 261,272.5C 260.503,269.854 260.336,267.187 260.5,264.5C 249.844,263.018 244.344,257.018 244,246.5C 249.189,243.251 252.855,244.584 255,250.5C 256.113,251.305 257.279,251.972 258.5,252.5 Z"/></g>
<g><path style="opacity:1" fill="#fdfefd" d="M 259.5,195.5 C 259.824,202.354 259.491,209.021 258.5,215.5C 251.554,208.496 251.888,201.829 259.5,195.5 Z"/></g>
<g><path style="opacity:1" fill="#fdfefd" d="M 272.5,232.5 C 278.144,237.294 278.977,242.96 275,249.5C 273.961,250.71 272.794,251.71 271.5,252.5C 271.176,245.646 271.509,238.979 272.5,232.5 Z"/></g>
<g><path style="opacity:1" fill="#fdfefd" d="M 365.5,273.5 C 369.048,273.095 372.381,273.595 375.5,275C 360.521,285.351 346.854,297.351 334.5,311C 332.155,311.17 329.821,310.837 327.5,310C 337.78,295.218 350.446,283.051 365.5,273.5 Z"/></g>
<g><path style="opacity:1" fill="#fdfefd" d="M 394.5,272.5 C 402.379,272.216 405.212,275.883 403,283.5C 402.535,284.931 401.701,286.097 400.5,287C 391.209,288.643 382.543,291.976 374.5,297C 364.258,303.905 354.591,311.572 345.5,320C 344.551,320.617 343.718,320.451 343,319.5C 341.711,317.945 341.044,316.279 341,314.5C 356.725,297.585 374.558,283.585 394.5,272.5 Z"/></g>
<g><path style="opacity:1" fill="#fdfefd" d="M 336.5,278.5 C 339.247,278.187 341.914,278.52 344.5,279.5C 335.271,289.226 326.604,299.392 318.5,310C 315.451,311.057 312.451,311.224 309.5,310.5C 315.698,297.417 324.698,286.75 336.5,278.5 Z"/></g>
<g><path style="opacity:1" fill="#fdfefd" d="M 396.5,294.5 C 404.821,293.411 406.654,296.411 402,303.5C 376.764,332.348 347.93,356.848 315.5,377C 293.491,389.947 269.825,394.613 244.5,391C 224.479,383.441 203.813,380.441 182.5,382C 175.087,383.187 167.754,384.687 160.5,386.5C 156.045,367.512 151.045,348.679 145.5,330C 155.049,328.52 164.383,326.186 173.5,323C 185.833,316 198.167,309 210.5,302C 219.167,300 227.833,300 236.5,302C 248.495,306.221 260.162,311.221 271.5,317C 279.843,320.588 288.509,321.921 297.5,321C 305.299,319.592 313.132,318.425 321,317.5C 326.166,317.333 330.999,318.5 335.5,321C 340.76,329.819 338.76,336.485 329.5,341C 309.567,346.812 289.234,349.145 268.5,348C 261.554,346.691 255.221,344.025 249.5,340C 245.513,339.661 244.013,341.494 245,345.5C 251.355,350.4 258.521,353.567 266.5,355C 291.019,357.321 314.686,353.988 337.5,345C 342.293,340.915 345.126,335.749 346,329.5C 360.299,314.011 377.133,302.344 396.5,294.5 Z"/></g>
<g><path style="opacity:1" fill="#fdfefd" d="M 133.5,316.5 C 135.255,318.761 136.422,321.428 137,324.5C 143.913,351.734 151.08,378.9 158.5,406C 158.415,407.107 158.081,408.107 157.5,409C 149.647,411.088 141.814,413.255 134,415.5C 132.893,415.415 131.893,415.081 131,414.5C 123.111,384.4 114.945,354.4 106.5,324.5C 115.489,321.489 124.489,318.822 133.5,316.5 Z"/></g>
</svg>
