<?xml version="1.0" encoding="utf-8"?>
<!-- Generator: Adobe Illustrator 17.0.0, SVG Export Plug-In . SVG Version: 6.00 Build 0)  -->
<!DOCTYPE svg PUBLIC "-//W3C//DTD SVG 1.1//EN" "http://www.w3.org/Graphics/SVG/1.1/DTD/svg11.dtd">
<svg version="1.1" id="Layer_1" xmlns="http://www.w3.org/2000/svg" xmlns:xlink="http://www.w3.org/1999/xlink" x="0px" y="0px"
	 width="1024px" height="1024px" viewBox="0 0 1024 1024" enable-background="new 0 0 1024 1024" xml:space="preserve">
<g>
	<g>
		<path fill-rule="evenodd" clip-rule="evenodd" fill="#F4AD03" d="M764.874,898.583c97.268,0,175.112-77.865,175.112-175.08
			c0-97.347-77.844-175.192-175.112-175.192c-97.294,0-175.006,77.845-175.006,175.192
			C589.868,820.718,667.58,898.583,764.874,898.583L764.874,898.583z"/>
		<path fill="#FFFFFF" stroke="#FFFFFF" stroke-width="40" stroke-miterlimit="10" d="M881.481,721.73
			c0,5.347-4.331,9.668-9.668,9.668H775.13v96.683c0,5.347-4.331,9.668-9.668,9.668c-5.337,0-9.668-4.322-9.668-9.668v-96.683
			H659.11c-5.337,0-9.668-4.322-9.668-9.668c0-5.347,4.331-9.668,9.668-9.668h96.683v-96.683c0-5.347,4.331-9.668,9.668-9.668
			c5.337,0,9.668,4.322,9.668,9.668v96.683h96.683C877.149,712.062,881.481,716.384,881.481,721.73z"/>
	</g>
	<path fill-rule="evenodd" clip-rule="evenodd" fill="#F4AD03" d="M558.027,70.558c0-1.754,1.706-5.364,5.268-8.872
		c1.701-1.733,3.509-5.289,7.065-7.07c3.487-3.535,7.096-5.316,10.579-7.071c3.562-1.754,7.07-1.754,10.658-1.754h160.946
		c6.991,0,14.114,1.754,19.403,7.07c1.754,1.754,1.754,3.535,3.561,3.535L672.922,339.482l0,0
		c-5.342,10.579-8.851,23.012-14.114,35.398v1.754L439.554,976.501c-3.614,1.707-8.877,1.707-14.193,1.707H239.696
		c-7.07,0-14.135-1.707-19.503-5.316c-5.263-5.316-5.263-10.526-1.728-19.403L558.027,70.558z"/>
	<g>
		<path fill-rule="evenodd" clip-rule="evenodd" fill="#F4AD03" d="M259.152,420.883c97.242,0,175.059-79.593,175.059-175.187
			c0-97.294-77.818-176.892-175.059-176.892c-95.461,0-175.139,79.598-175.139,176.892
			C84.014,341.289,163.691,420.883,259.152,420.883L259.152,420.883z"/>
		<path fill="#FFFFFF" d="M259.128,128.886c-63.826,0-115.567,51.741-115.567,115.567S195.302,360.02,259.128,360.02
			s115.567-51.741,115.567-115.567H259.128V128.886z"/>
	</g>
</g>
</svg>
