<svg xmlns="http://www.w3.org/2000/svg" width="1024px"
	 height="1024px" viewBox="0 0 1024 1024" enable-background="new 0 0 1024 1024" xml:space="preserve">
	<g>
		<g>
			<path fill-rule="evenodd" clip-rule="evenodd" fill="#F4AD03" d="M669.378,752.593c60.535,0,108.982-48.46,108.982-108.962
				c0-60.585-48.447-109.032-108.982-109.032c-60.552,0-108.916,48.447-108.916,109.032
				C560.462,704.133,608.826,752.593,669.378,752.593L669.378,752.593z"/>
			<path fill="#FFFFFF" stroke="#FFFFFF" stroke-width="20" stroke-miterlimit="10" d="M741.949,642.527
				c0,3.328-2.696,6.017-6.017,6.017H675.76v60.171c0,3.327-2.696,6.017-6.017,6.017s-6.017-2.69-6.017-6.017v-60.171h-60.171
				c-3.321,0-6.017-2.69-6.017-6.017c0-3.327,2.696-6.017,6.017-6.017h60.171v-60.171c0-3.327,2.696-6.017,6.017-6.017
				s6.017,2.69,6.017,6.017v60.171h60.171C739.253,636.51,741.949,639.2,741.949,642.527z"/>
		</g>
		<path fill-rule="evenodd" clip-rule="evenodd" fill="#F4AD03" d="M540.645,237.266c0-1.092,1.062-3.338,3.278-5.521
			c1.059-1.079,2.184-3.292,4.397-4.4c2.17-2.2,4.417-3.308,6.584-4.4c2.217-1.091,4.4-1.091,6.633-1.091h100.166
			c4.351,0,8.784,1.091,12.076,4.4c1.092,1.092,1.092,2.2,2.216,2.2l-63.844,176.18l0,0c-3.325,6.584-5.508,14.322-8.784,22.03
			v1.091L466.913,801.086c-2.249,1.062-5.525,1.062-8.833,1.062H342.53c-4.4,0-8.797-1.062-12.138-3.308
			c-3.275-3.308-3.275-6.551-1.075-12.076L540.645,237.266z"/>
		<g>
			<path fill-rule="evenodd" clip-rule="evenodd" fill="#F4AD03" d="M354.639,455.292c60.519,0,108.949-49.535,108.949-109.029
				c0-60.552-48.43-110.09-108.949-110.09c-59.411,0-108.999,49.539-108.999,110.09C245.64,405.757,295.228,455.292,354.639,455.292
				L354.639,455.292z"/>
			<path fill="#FFFFFF" d="M354.623,273.566c-39.723,0-71.924,32.202-71.924,71.924s32.202,71.924,71.924,71.924
				s71.924-32.202,71.924-71.924h-71.924V273.566z"/>
		</g>
	</g>
</svg>
