<svg xmlns="http://www.w3.org/2000/svg" xmlns:xlink="http://www.w3.org/1999/xlink" version="1.1" width="512px" height="512px" style="shape-rendering:geometricPrecision; text-rendering:geometricPrecision; image-rendering:optimizeQuality; fill-rule:evenodd; clip-rule:evenodd">
<g><path style="opacity:0.997" fill="#4285f4" d="M 233.5,5.5 C 319.661,0.589432 391.161,30.2561 448,94.5C 502.367,163.662 518.367,240.995 496,326.5C 468.167,411.667 411.667,468.167 326.5,496C 240.991,518.366 163.658,502.366 94.5,448C 23.427,384.467 -5.07297,305.3 9,210.5C 25.8937,128.482 71.3937,68.3154 145.5,30C 173.562,16.8211 202.895,8.6544 233.5,5.5 Z"/></g>
<g><path style="opacity:1" fill="#fdfefe" d="M 243.5,94.5 C 280.445,92.642 311.945,104.642 338,130.5C 338.499,135.155 338.666,139.821 338.5,144.5C 283.167,144.5 227.833,144.5 172.5,144.5C 172.334,139.821 172.501,135.155 173,130.5C 192.544,110.645 216.044,98.6452 243.5,94.5 Z"/></g>
<g><path style="opacity:1" fill="#fefffe" d="M 348.5,166.5 C 286.5,166.5 224.5,166.5 162.5,166.5C 162.5,161.833 162.5,157.167 162.5,152.5C 224.5,152.5 286.5,152.5 348.5,152.5C 348.5,157.167 348.5,161.833 348.5,166.5 Z"/></g>
<g><path style="opacity:1" fill="#fefefe" d="M 173.5,174.5 C 228.167,174.5 282.833,174.5 337.5,174.5C 337.5,198.5 337.5,222.5 337.5,246.5C 282.833,246.5 228.167,246.5 173.5,246.5C 173.5,222.5 173.5,198.5 173.5,174.5 Z"/></g>
<g><path style="opacity:1" fill="#578ef5" d="M 304.5,206.5 C 306.265,207.461 308.265,207.795 310.5,207.5C 310.5,209.5 310.5,211.5 310.5,213.5C 308.265,213.205 306.265,213.539 304.5,214.5C 301.608,220.284 299.275,226.284 297.5,232.5C 269.5,232.5 241.5,232.5 213.5,232.5C 211.725,226.284 209.392,220.284 206.5,214.5C 204.735,213.539 202.735,213.205 200.5,213.5C 200.5,211.5 200.5,209.5 200.5,207.5C 202.735,207.795 204.735,207.461 206.5,206.5C 209.227,200.65 211.561,194.65 213.5,188.5C 241.5,188.5 269.5,188.5 297.5,188.5C 299.439,194.65 301.773,200.65 304.5,206.5 Z"/></g>
<g><path style="opacity:1" fill="#fefefe" d="M 218.5,196.5 C 243.169,196.333 267.836,196.5 292.5,197C 293.926,199.773 295.26,202.607 296.5,205.5C 269.167,206.833 241.833,206.833 214.5,205.5C 215.84,202.471 217.173,199.471 218.5,196.5 Z"/></g>
<g><path style="opacity:1" fill="#b6cefa" d="M 206.5,206.5 C 204.735,207.461 202.735,207.795 200.5,207.5C 200.5,209.5 200.5,211.5 200.5,213.5C 202.735,213.205 204.735,213.539 206.5,214.5C 204.167,214.5 201.833,214.5 199.5,214.5C 199.5,211.833 199.5,209.167 199.5,206.5C 201.833,206.5 204.167,206.5 206.5,206.5 Z"/></g>
<g><path style="opacity:1" fill="#b6cefa" d="M 304.5,206.5 C 306.833,206.5 309.167,206.5 311.5,206.5C 311.5,209.167 311.5,211.833 311.5,214.5C 309.167,214.5 306.833,214.5 304.5,214.5C 306.265,213.539 308.265,213.205 310.5,213.5C 310.5,211.5 310.5,209.5 310.5,207.5C 308.265,207.795 306.265,207.461 304.5,206.5 Z"/></g>
<g><path style="opacity:1" fill="#fefefe" d="M 214.5,214.5 C 241.841,214.167 269.175,214.5 296.5,215.5C 295.022,218.288 293.689,221.122 292.5,224C 267.833,224.667 243.167,224.667 218.5,224C 217.025,220.885 215.692,217.718 214.5,214.5 Z"/></g>
<g><path style="opacity:1" fill="#fefefe" d="M 173.5,254.5 C 228.167,254.5 282.833,254.5 337.5,254.5C 337.5,295.167 337.5,335.833 337.5,376.5C 282.833,376.5 228.167,376.5 173.5,376.5C 173.5,335.833 173.5,295.167 173.5,254.5 Z"/></g>
<g><path style="opacity:1" fill="#4887f4" d="M 198.5,284.5 C 236.5,284.5 274.5,284.5 312.5,284.5C 312.5,305.167 312.5,325.833 312.5,346.5C 274.5,346.5 236.5,346.5 198.5,346.5C 198.5,325.833 198.5,305.167 198.5,284.5 Z"/></g>
<g><path style="opacity:1" fill="#fcfdfe" d="M 297.5,338.5 C 269.5,339.833 241.5,339.833 213.5,338.5C 222.148,332.191 230.815,325.858 239.5,319.5C 244.858,323.201 250.191,326.868 255.5,330.5C 261.142,327.341 266.475,323.674 271.5,319.5C 280.185,325.858 288.852,332.191 297.5,338.5 Z"/></g>
<g><path style="opacity:1" fill="#fcfdfe" d="M 304.5,295.5 C 305.66,308.66 305.827,321.994 305,335.5C 296.077,328.955 287.244,322.288 278.5,315.5C 286.9,308.426 295.567,301.76 304.5,295.5 Z"/></g>
<g><path style="opacity:1" fill="#fcfdfe" d="M 205.5,295.5 C 215.043,301.438 224.043,308.104 232.5,315.5C 223.795,322.277 214.961,328.943 206,335.5C 205.5,322.171 205.333,308.837 205.5,295.5 Z"/></g>
<g><path style="opacity:1" fill="#fdfdfe" d="M 213.5,292.5 C 241.33,291.336 269.33,291.17 297.5,292C 283.36,301.973 269.36,312.14 255.5,322.5C 241.76,312.087 227.76,302.087 213.5,292.5 Z"/></g>
<g><path style="opacity:1" fill="#fefffe" d="M 162.5,384.5 C 224.5,384.5 286.5,384.5 348.5,384.5C 348.5,389.167 348.5,393.833 348.5,398.5C 286.5,398.5 224.5,398.5 162.5,398.5C 162.5,393.833 162.5,389.167 162.5,384.5 Z"/></g>
<g><path style="opacity:1" fill="#fefffe" d="M 173.5,406.5 C 182.833,406.5 192.167,406.5 201.5,406.5C 201.5,409.5 201.5,412.5 201.5,415.5C 192.167,415.5 182.833,415.5 173.5,415.5C 173.5,412.5 173.5,409.5 173.5,406.5 Z"/></g>
<g><path style="opacity:1" fill="#fefffe" d="M 337.5,406.5 C 337.5,409.5 337.5,412.5 337.5,415.5C 328.167,415.5 318.833,415.5 309.5,415.5C 309.5,412.5 309.5,409.5 309.5,406.5C 318.833,406.5 328.167,406.5 337.5,406.5 Z"/></g>
</svg>
