<svg xmlns="http://www.w3.org/2000/svg" version="1.1" width="512px" height="512px" style="shape-rendering:geometricPrecision; text-rendering:geometricPrecision; image-rendering:optimizeQuality; fill-rule:evenodd; clip-rule:evenodd">
<g><path style="opacity:0.997" fill="#0f9d58" d="M 233.5,5.5 C 319.661,0.589432 391.161,30.2561 448,94.5C 502.367,163.662 518.367,240.995 496,326.5C 468.167,411.667 411.667,468.167 326.5,496C 240.991,518.366 163.658,502.366 94.5,448C 23.427,384.467 -5.07297,305.3 9,210.5C 25.8937,128.482 71.3937,68.3154 145.5,30C 173.562,16.8211 202.895,8.6544 233.5,5.5 Z"/></g>
<g><path style="opacity:1" fill="#fdfefd" d="M 313.5,94.5 C 317.587,94.2935 321.087,95.6269 324,98.5C 330.922,111.344 337.589,124.344 344,137.5C 345.093,143.226 343.26,147.726 338.5,151C 323.702,154.293 308.869,157.46 294,160.5C 285.633,158.449 282.299,153.116 284,144.5C 286.555,140.133 290.388,137.633 295.5,137C 235.437,120.798 186.604,137.298 149,186.5C 124.228,224.585 119.894,264.919 136,307.5C 139.797,316.259 143.963,324.759 148.5,333C 147.449,339.372 144.116,344.038 138.5,347C 136.833,347.667 135.167,347.667 133.5,347C 123.876,335.258 116.709,322.092 112,307.5C 93.5941,242.262 109.427,187.095 159.5,142C 204.783,107.62 254.449,99.2862 308.5,117C 301.761,107.241 303.427,99.7409 313.5,94.5 Z"/></g>
<g><path style="opacity:1" fill="#fdfefd" d="M 362.5,158.5 C 366.95,158.142 370.45,159.808 373,163.5C 409.407,211.745 416.407,264.079 394,320.5C 370.057,370.097 330.891,399.597 276.5,409C 246.237,413.249 217.404,408.749 190,395.5C 190.79,398.561 191.624,401.727 192.5,405C 190.246,414.29 184.579,417.623 175.5,415C 173.083,413.337 171.25,411.171 170,408.5C 165,396.167 160,383.833 155,371.5C 153.982,365.035 156.482,360.535 162.5,358C 177.738,355.237 193.072,353.57 208.5,353C 215.505,357.098 217.338,362.931 214,370.5C 210.489,373.681 206.322,375.514 201.5,376C 250.686,396.203 296.352,390.203 338.5,358C 373.641,326.255 388.475,286.755 383,239.5C 378.731,215.634 369.064,194.301 354,175.5C 353.103,167.961 355.936,162.295 362.5,158.5 Z"/></g>
<g><path style="opacity:1" fill="#fdfefd" d="M 240.5,174.5 C 258.475,173.543 276.141,175.376 293.5,180C 300.659,181.985 306.492,185.818 311,191.5C 311.623,197.087 309.456,201.254 304.5,204C 287.911,211.765 270.411,215.265 252,214.5C 234.634,214.75 218.467,210.583 203.5,202C 198.274,196.921 198.274,191.921 203.5,187C 215.028,180.102 227.361,175.936 240.5,174.5 Z"/></g>
<g><path style="opacity:1" fill="#fdfefd" d="M 199.5,207.5 C 215.692,218.007 233.525,222.674 253,221.5C 273.547,222.886 292.713,218.553 310.5,208.5C 311.664,214.807 311.831,221.141 311,227.5C 309.75,230.171 307.917,232.337 305.5,234C 289.679,241.396 273.012,244.896 255.5,244.5C 237.902,245.281 221.235,241.781 205.5,234C 204,232.5 202.5,231 201,229.5C 199.571,222.281 199.071,214.947 199.5,207.5 Z"/></g>
<g><path style="opacity:1" fill="#fdfefd" d="M 199.5,238.5 C 216.606,248.293 235.106,252.959 255,252.5C 270.99,252.169 286.49,249.336 301.5,244C 304.912,242.545 308.079,240.712 311,238.5C 311.499,243.155 311.666,247.821 311.5,252.5C 296.782,254.19 285.115,261.023 276.5,273C 262.9,275.83 249.234,276.163 235.5,274C 226.76,261.46 214.76,254.293 199.5,252.5C 199.5,247.833 199.5,243.167 199.5,238.5 Z"/></g>
<g><path style="opacity:1" fill="#fdfefd" d="M 190.5,259.5 C 219.184,259.684 233.684,274.018 234,302.5C 231.043,320.79 220.543,331.956 202.5,336C 178.28,337.977 163.447,327.144 158,303.5C 156.92,279.981 167.753,265.314 190.5,259.5 Z"/></g>
<g><path style="opacity:1" fill="#fdfefd" d="M 308.5,259.5 C 340.968,260.125 355.468,276.458 352,308.5C 343.476,331.016 327.31,339.85 303.5,335C 282.556,325.949 274.056,310.116 278,287.5C 283.293,272.784 293.459,263.45 308.5,259.5 Z"/></g>
<g><path style="opacity:1" fill="#0f9d58" d="M 194.5,264.5 C 198.994,265.159 200.661,267.825 199.5,272.5C 205.725,272.778 210.058,275.778 212.5,281.5C 212.038,283.291 210.871,284.291 209,284.5C 206.038,282.896 203.038,281.229 200,279.5C 199.501,284.823 199.334,290.156 199.5,295.5C 207.268,296.936 211.601,301.602 212.5,309.5C 211.296,316.582 207.296,321.249 200.5,323.5C 199.971,326.257 198.971,328.757 197.5,331C 196.167,331.667 194.833,331.667 193.5,331C 192.736,328.931 192.236,326.764 192,324.5C 188.526,323.68 185.359,322.18 182.5,320C 178.439,316.642 178.605,313.808 183,311.5C 185.925,312.906 188.758,314.573 191.5,316.5C 192.833,311.5 192.833,306.5 191.5,301.5C 179.576,296.556 176.742,288.556 183,277.5C 185.586,275.455 188.42,273.789 191.5,272.5C 192.081,269.594 193.081,266.927 194.5,264.5 Z"/></g>
<g><path style="opacity:1" fill="#0f9d58" d="M 320.5,280.5 C 320.44,279.957 320.107,279.624 319.5,279.5C 319.167,282.167 318.833,284.833 318.5,287.5C 318.522,290.59 319.188,293.257 320.5,295.5C 330.88,299.926 333.714,307.259 329,317.5C 326.081,320.6 322.581,322.6 318.5,323.5C 318.663,325.857 318.497,328.19 318,330.5C 312.476,331.805 310.309,329.472 311.5,323.5C 304.668,323.142 300.501,319.808 299,313.5C 299.804,312.196 300.971,311.529 302.5,311.5C 305.143,313.13 307.809,314.797 310.5,316.5C 311.662,311.533 311.829,306.533 311,301.5C 299.998,297.503 296.664,290.17 301,279.5C 303.464,276.202 306.63,273.868 310.5,272.5C 311.029,269.743 312.029,267.243 313.5,265C 315.367,264.289 316.867,264.789 318,266.5C 318.495,268.473 318.662,270.473 318.5,272.5C 325.804,272.986 329.97,276.652 331,283.5C 330.107,284.081 329.107,284.415 328,284.5C 325.378,283.375 322.878,282.041 320.5,280.5 Z"/></g>
<g><path style="opacity:1" fill="#fdfefd" d="M 309.5,280.5 C 310.8,282.223 311.467,284.39 311.5,287C 312.58,293.421 311.08,294.588 307,290.5C 305.861,286.579 306.695,283.246 309.5,280.5 Z"/></g>
<g><path style="opacity:1" fill="#fdfefd" d="M 320.5,280.5 C 319.2,285.4 319.2,290.4 320.5,295.5C 319.188,293.257 318.522,290.59 318.5,287.5C 318.833,284.833 319.167,282.167 319.5,279.5C 320.107,279.624 320.44,279.957 320.5,280.5 Z"/></g>
<g><path style="opacity:1" fill="#fdfefd" d="M 190.5,280.5 C 191.8,282.223 192.467,284.39 192.5,287C 193.093,293.088 191.593,294.255 188,290.5C 187.219,289.271 186.719,287.938 186.5,286.5C 187.432,284.235 188.765,282.235 190.5,280.5 Z"/></g>
<g><path style="opacity:1" fill="#fdfefd" d="M 238.5,281.5 C 249.875,282.465 261.208,282.798 272.5,282.5C 271.208,284.667 270.375,287 270,289.5C 269.501,294.823 269.334,300.156 269.5,305.5C 260.167,305.5 250.833,305.5 241.5,305.5C 242.154,297.237 241.154,289.237 238.5,281.5 Z"/></g>
<g><path style="opacity:1" fill="#fdfefd" d="M 199.5,302.5 C 205.655,306.419 205.988,310.752 200.5,315.5C 199.508,311.217 199.174,306.884 199.5,302.5 Z"/></g>
<g><path style="opacity:1" fill="#fdfefd" d="M 318.5,302.5 C 323.876,304.585 325.376,308.252 323,313.5C 321.915,314.293 320.748,314.96 319.5,315.5C 318.508,311.217 318.174,306.884 318.5,302.5 Z"/></g>
<g><path style="opacity:1" fill="#fdfefd" d="M 239.5,312.5 C 250.172,312.333 260.839,312.5 271.5,313C 274.339,320.341 278.672,326.674 284.5,332C 280.076,333.809 275.41,334.809 270.5,335C 256.431,335.983 242.431,335.483 228.5,333.5C 227.068,333.267 226.568,332.6 227,331.5C 232.681,326.132 236.847,319.799 239.5,312.5 Z"/></g>
</svg>
