<svg xmlns="http://www.w3.org/2000/svg" version="1.1" width="512px" height="512px" style="shape-rendering:geometricPrecision; text-rendering:geometricPrecision; image-rendering:optimizeQuality; fill-rule:evenodd; clip-rule:evenodd">
<g><path style="opacity:1" fill="#625ac4" d="M 232.5,-0.5 C 244.167,-0.5 255.833,-0.5 267.5,-0.5C 242.014,23.6669 223.347,52.3336 211.5,85.5C 197.016,85.1539 184.849,90.1539 175,100.5C 172.473,104.221 170.473,108.221 169,112.5C 164.285,128.195 160.118,144.029 156.5,160C 138.652,162.172 121.652,167.172 105.5,175C 102.705,176.793 100.205,178.96 98,181.5C 95.4945,186.62 96.6611,190.786 101.5,194C 104.833,196 108.167,198 111.5,200C 120.841,203.502 130.175,206.669 139.5,209.5C 124.265,253.832 132.598,292.998 164.5,327C 174.968,336.407 186.635,344.073 199.5,350C 154.412,371.094 126.245,405.927 115,454.5C 114.006,459.118 113.506,463.785 113.5,468.5C 67.6024,438.088 34.7691,397.088 15,345.5C 7.11831,323.65 1.95164,301.317 -0.5,278.5C -0.5,263.167 -0.5,247.833 -0.5,232.5C 10.3875,142.857 54.7208,75.3573 132.5,30C 163.971,13.3053 197.304,3.1386 232.5,-0.5 Z"/></g>
<g><path style="opacity:0.997" fill="#827cd1" d="M 267.5,-0.5 C 271.167,-0.5 274.833,-0.5 278.5,-0.5C 368.144,10.3879 435.644,54.7213 481,132.5C 497.695,163.971 507.861,197.304 511.5,232.5C 511.5,247.833 511.5,263.167 511.5,278.5C 502.687,355.642 467.353,417.475 405.5,464C 402.941,465.777 400.274,467.277 397.5,468.5C 390.002,413.678 361.335,374.345 311.5,350.5C 362.382,325.752 384.215,285.085 377,228.5C 375.627,222.001 373.793,215.668 371.5,209.5C 371.611,208.883 371.944,208.383 372.5,208C 385.187,205.439 397.187,201.105 408.5,195C 416.5,189 416.5,183 408.5,177C 401.28,172.702 393.614,169.369 385.5,167C 374.964,164.494 364.464,161.994 354,159.5C 350.603,142.577 346.269,125.91 341,109.5C 336.057,97.5586 327.224,90.3919 314.5,88C 290.204,83.2563 265.871,81.7563 241.5,83.5C 231.402,83.1232 221.402,83.7899 211.5,85.5C 223.347,52.3336 242.014,23.6669 267.5,-0.5 Z"/></g>
<g><path style="opacity:1" fill="#9ba0e3" d="M 241.5,83.5 C 228.716,100.605 222.383,119.938 222.5,141.5C 221.597,162.225 226.763,181.225 238,198.5C 244.617,206.449 252.45,212.949 261.5,218C 252.173,218.5 242.839,218.666 233.5,218.5C 223.484,218.547 213.484,218.213 203.5,217.5C 189.943,216.346 176.277,214.846 162.5,213C 155.347,212.142 148.347,210.642 141.5,208.5C 140.817,208.863 140.15,209.196 139.5,209.5C 130.175,206.669 120.841,203.502 111.5,200C 108.167,198 104.833,196 101.5,194C 96.6611,190.786 95.4945,186.62 98,181.5C 100.205,178.96 102.705,176.793 105.5,175C 121.652,167.172 138.652,162.172 156.5,160C 160.118,144.029 164.285,128.195 169,112.5C 170.473,108.221 172.473,104.221 175,100.5C 184.849,90.1539 197.016,85.1539 211.5,85.5C 221.402,83.7899 231.402,83.1232 241.5,83.5 Z"/></g>
<g><path style="opacity:1" fill="#d2d2fe" d="M 371.5,209.5 C 370.735,209.077 369.902,208.743 369,208.5C 329.226,216.094 289.06,219.76 248.5,219.5C 243.322,219.499 238.322,219.166 233.5,218.5C 242.839,218.666 252.173,218.5 261.5,218C 252.45,212.949 244.617,206.449 238,198.5C 226.763,181.225 221.597,162.225 222.5,141.5C 222.383,119.938 228.716,100.605 241.5,83.5C 265.871,81.7563 290.204,83.2563 314.5,88C 327.224,90.3919 336.057,97.5586 341,109.5C 346.269,125.91 350.603,142.577 354,159.5C 364.464,161.994 374.964,164.494 385.5,167C 393.614,169.369 401.28,172.702 408.5,177C 416.5,183 416.5,189 408.5,195C 397.187,201.105 385.187,205.439 372.5,208C 371.944,208.383 371.611,208.883 371.5,209.5 Z"/></g>
<g><path style="opacity:0.997" fill="#d2d2fe" d="M 203.5,217.5 C 202.178,217.33 201.011,217.663 200,218.5C 192.679,263.617 202.346,304.617 229,341.5C 232.581,345.752 236.748,349.252 241.5,352C 226.444,366.952 217.944,385.119 216,406.5C 211.394,439.681 218.394,470.014 237,497.5C 241.729,502.397 246.562,507.064 251.5,511.5C 245.167,511.5 238.833,511.5 232.5,511.5C 198.083,507.89 165.417,498.057 134.5,482C 127.095,477.974 120.095,473.474 113.5,468.5C 113.506,463.785 114.006,459.118 115,454.5C 126.245,405.927 154.412,371.094 199.5,350C 186.635,344.073 174.968,336.407 164.5,327C 132.598,292.998 124.265,253.832 139.5,209.5C 140.15,209.196 140.817,208.863 141.5,208.5C 148.347,210.642 155.347,212.142 162.5,213C 176.277,214.846 189.943,216.346 203.5,217.5 Z"/></g>
<g><path style="opacity:0.999" fill="#edebfe" d="M 371.5,209.5 C 373.793,215.668 375.627,222.001 377,228.5C 384.215,285.085 362.382,325.752 311.5,350.5C 361.335,374.345 390.002,413.678 397.5,468.5C 371.491,486.661 342.825,499.161 311.5,506C 300.075,508.177 288.742,510.01 277.5,511.5C 268.833,511.5 260.167,511.5 251.5,511.5C 246.562,507.064 241.729,502.397 237,497.5C 218.394,470.014 211.394,439.681 216,406.5C 217.944,385.119 226.444,366.952 241.5,352C 236.748,349.252 232.581,345.752 229,341.5C 202.346,304.617 192.679,263.617 200,218.5C 201.011,217.663 202.178,217.33 203.5,217.5C 213.484,218.213 223.484,218.547 233.5,218.5C 238.322,219.166 243.322,219.499 248.5,219.5C 289.06,219.76 329.226,216.094 369,208.5C 369.902,208.743 370.735,209.077 371.5,209.5 Z"/></g>
<g><path style="opacity:1" fill="#635bc4" d="M 247.5,245.5 C 271.418,243.696 287.252,254.029 295,276.5C 298.079,302.046 287.413,318.379 263,325.5C 262.667,335.833 262.333,346.167 262,356.5C 257.585,361.726 253.251,361.726 249,356.5C 248.333,342.5 248.333,328.5 249,314.5C 249.833,313.667 250.667,312.833 251.5,312C 272.603,310.6 282.103,299.433 280,278.5C 274.389,264.777 264.222,258.943 249.5,261C 236.538,265.096 230.038,273.929 230,287.5C 226.154,294.466 221.487,295.133 216,289.5C 214.492,272.017 221.325,258.85 236.5,250C 240.266,248.441 243.932,246.941 247.5,245.5 Z"/></g>
<g><path style="opacity:1" fill="#655dc5" d="M 252.5,381.5 C 260.775,380.706 263.942,384.373 262,392.5C 257.585,397.726 253.251,397.726 249,392.5C 247.663,387.872 248.83,384.205 252.5,381.5 Z"/></g>
</svg>
