<?xml version="1.0" encoding="UTF-8"?>
<!DOCTYPE svg PUBLIC "-//W3C//DTD SVG 1.1//EN" "http://www.w3.org/Graphics/SVG/1.1/DTD/svg11.dtd">
<svg xmlns="http://www.w3.org/2000/svg" version="1.1" width="512px" height="512px" style="shape-rendering:geometricPrecision; text-rendering:geometricPrecision; image-rendering:optimizeQuality; fill-rule:evenodd; clip-rule:evenodd" xmlns:xlink="http://www.w3.org/1999/xlink">
<g><path style="opacity:0.991" fill="#0153be" d="M 233.5,-0.5 C 248.167,-0.5 262.833,-0.5 277.5,-0.5C 377.805,11.9821 449.305,63.9821 492,155.5C 501.453,178.313 507.62,201.98 510.5,226.5C 476.035,192.535 441.701,158.368 407.5,124C 406.906,123.536 406.239,123.369 405.5,123.5C 387.481,101.531 365.815,97.3644 340.5,111C 335.955,114.044 332.289,117.877 329.5,122.5C 308.987,111.203 286.987,104.87 263.5,103.5C 234.149,101.083 206.482,107.083 180.5,121.5C 168.488,106.395 152.821,100.562 133.5,104C 106.925,112.96 95.4255,131.46 99,159.5C 101.855,170.571 107.688,179.571 116.5,186.5C 106.779,207.935 101.445,230.435 100.5,254C 101.191,263.171 101.857,272.337 102.5,281.5C 94.4606,334.776 86.7939,388.109 79.5,441.5C 32.5376,396.905 5.87094,342.239 -0.5,277.5C -0.5,262.833 -0.5,248.167 -0.5,233.5C 11.9821,133.195 63.9821,61.6947 155.5,19C 180.687,8.70332 206.687,2.20332 233.5,-0.5 Z"/></g>
<g><path style="opacity:1" fill="#fd9403" d="M 180.5,121.5 C 173.998,125.25 167.665,129.25 161.5,133.5C 156.907,127.461 150.74,124.795 143,125.5C 125.749,128.099 118.416,138.099 121,155.5C 121.942,160.758 124.776,164.424 129.5,166.5C 125.133,173.189 120.8,179.856 116.5,186.5C 107.688,179.571 101.855,170.571 99,159.5C 95.4255,131.46 106.925,112.96 133.5,104C 152.821,100.562 168.488,106.395 180.5,121.5 Z"/></g>
<g><path style="opacity:1" fill="#fd8105" d="M 263.5,103.5 C 260.833,103.5 258.167,103.5 255.5,103.5C 255.5,145.833 255.5,188.167 255.5,230.5C 216.936,234.065 195.602,255.065 191.5,293.5C 194.225,333.558 215.558,355.558 255.5,359.5C 255.5,375.833 255.5,392.167 255.5,408.5C 196.821,407.417 151.988,382.083 121,332.5C 112.494,316.192 106.327,299.192 102.5,281.5C 101.857,272.337 101.191,263.171 100.5,254C 101.445,230.435 106.779,207.935 116.5,186.5C 120.8,179.856 125.133,173.189 129.5,166.5C 138.823,154.177 149.49,143.177 161.5,133.5C 167.665,129.25 173.998,125.25 180.5,121.5C 206.482,107.083 234.149,101.083 263.5,103.5 Z"/></g>
<g><path style="opacity:1" fill="#f95d0f" d="M 263.5,103.5 C 286.987,104.87 308.987,111.203 329.5,122.5C 335.492,126.497 341.492,130.497 347.5,134.5C 359.514,145.182 370.514,156.848 380.5,169.5C 384.185,176.206 387.851,182.873 391.5,189.5C 403.5,215.812 408.834,243.479 407.5,272.5C 399.251,323.244 373.251,362.077 329.5,389C 306.553,402.07 281.887,408.57 255.5,408.5C 255.5,392.167 255.5,375.833 255.5,359.5C 258.059,359.802 260.393,359.468 262.5,358.5C 289.685,355.14 307.851,340.474 317,314.5C 324.807,282.302 314.974,257.136 287.5,239C 280.072,234.643 272.072,232.143 263.5,231.5C 261.052,230.527 258.385,230.194 255.5,230.5C 255.5,188.167 255.5,145.833 255.5,103.5C 258.167,103.5 260.833,103.5 263.5,103.5 Z"/></g>
<g><path style="opacity:1" fill="#fc8107" d="M 405.5,123.5 C 414.969,140.861 414.802,158.195 405,175.5C 400.92,180.743 396.42,185.41 391.5,189.5C 387.851,182.873 384.185,176.206 380.5,169.5C 389.317,162.219 392.483,152.885 390,141.5C 382.039,125.277 369.873,121.11 353.5,129C 351.304,130.699 349.304,132.533 347.5,134.5C 341.492,130.497 335.492,126.497 329.5,122.5C 332.289,117.877 335.955,114.044 340.5,111C 365.815,97.3644 387.481,101.531 405.5,123.5 Z"/></g>
<g><path style="opacity:1" fill="#ffb03a" d="M 161.5,133.5 C 149.49,143.177 138.823,154.177 129.5,166.5C 124.776,164.424 121.942,160.758 121,155.5C 118.416,138.099 125.749,128.099 143,125.5C 150.74,124.795 156.907,127.461 161.5,133.5 Z"/></g>
<g><path style="opacity:1" fill="#fea325" d="M 380.5,169.5 C 370.514,156.848 359.514,145.182 347.5,134.5C 349.304,132.533 351.304,130.699 353.5,129C 369.873,121.11 382.039,125.277 390,141.5C 392.483,152.885 389.317,162.219 380.5,169.5 Z"/></g>
<g><path style="opacity:1" fill="#27488f" d="M 405.5,123.5 C 406.239,123.369 406.906,123.536 407.5,124C 441.701,158.368 476.035,192.535 510.5,226.5C 510.198,229.059 510.532,231.393 511.5,233.5C 511.5,248.167 511.5,262.833 511.5,277.5C 505.129,342.239 478.462,396.905 431.5,441.5C 424.043,385.089 416.043,328.756 407.5,272.5C 408.834,243.479 403.5,215.812 391.5,189.5C 396.42,185.41 400.92,180.743 405,175.5C 414.802,158.195 414.969,140.861 405.5,123.5 Z"/></g>
<g><path style="opacity:1" fill="#575a64" d="M 167.5,195.5 C 182.328,195.154 188.162,202.154 185,216.5C 178.956,225.127 171.456,226.627 162.5,221C 154.584,210.564 156.251,202.064 167.5,195.5 Z"/></g>
<g><path style="opacity:1" fill="#35393f" d="M 333.5,195.5 C 348.848,194.671 355.015,201.671 352,216.5C 344.403,226.299 336.07,226.966 327,218.5C 322.189,208.804 324.356,201.138 333.5,195.5 Z"/></g>
<g><path style="opacity:1" fill="#fefdfd" d="M 255.5,230.5 C 258.385,230.194 261.052,230.527 263.5,231.5C 260.833,231.5 258.167,231.5 255.5,231.5C 255.5,233.5 255.5,235.5 255.5,237.5C 250.489,237.334 245.489,237.501 240.5,238C 227.409,245.637 226.076,254.97 236.5,266C 242.209,269.069 248.209,271.236 254.5,272.5C 255.491,301.093 255.825,329.76 255.5,358.5C 257.833,358.5 260.167,358.5 262.5,358.5C 260.393,359.468 258.059,359.802 255.5,359.5C 215.558,355.558 194.225,333.558 191.5,293.5C 195.602,255.065 216.936,234.065 255.5,230.5 Z"/></g>
<g><path style="opacity:1" fill="#f1f5fa" d="M 263.5,231.5 C 272.072,232.143 280.072,234.643 287.5,239C 314.974,257.136 324.807,282.302 317,314.5C 307.851,340.474 289.685,355.14 262.5,358.5C 260.167,358.5 257.833,358.5 255.5,358.5C 255.825,329.76 255.491,301.093 254.5,272.5C 254.833,272.5 255.167,272.5 255.5,272.5C 262.555,271.37 269.221,269.037 275.5,265.5C 283.98,255.984 283.313,247.151 273.5,239C 267.593,237.639 261.593,237.139 255.5,237.5C 255.5,235.5 255.5,233.5 255.5,231.5C 258.167,231.5 260.833,231.5 263.5,231.5 Z"/></g>
<g><path style="opacity:1" fill="#555a66" d="M 255.5,237.5 C 255.5,249.167 255.5,260.833 255.5,272.5C 255.167,272.5 254.833,272.5 254.5,272.5C 248.209,271.236 242.209,269.069 236.5,266C 226.076,254.97 227.409,245.637 240.5,238C 245.489,237.501 250.489,237.334 255.5,237.5 Z"/></g>
<g><path style="opacity:1" fill="#343a41" d="M 255.5,237.5 C 261.593,237.139 267.593,237.639 273.5,239C 283.313,247.151 283.98,255.984 275.5,265.5C 269.221,269.037 262.555,271.37 255.5,272.5C 255.5,260.833 255.5,249.167 255.5,237.5 Z"/></g>
<g><path style="opacity:1" fill="#f14501" d="M 407.5,272.5 C 416.043,328.756 424.043,385.089 431.5,441.5C 400.894,470.984 364.894,491.484 323.5,503C 308.204,506.828 292.87,509.661 277.5,511.5C 270.167,511.5 262.833,511.5 255.5,511.5C 255.5,477.167 255.5,442.833 255.5,408.5C 281.887,408.57 306.553,402.07 329.5,389C 373.251,362.077 399.251,323.244 407.5,272.5 Z"/></g>
<g><path style="opacity:1" fill="#fd6917" d="M 102.5,281.5 C 106.327,299.192 112.494,316.192 121,332.5C 151.988,382.083 196.821,407.417 255.5,408.5C 255.5,442.833 255.5,477.167 255.5,511.5C 248.167,511.5 240.833,511.5 233.5,511.5C 198.501,508.166 165.501,498.166 134.5,481.5C 134.027,480.094 133.027,479.427 131.5,479.5C 128.008,478.59 125.008,476.924 122.5,474.5C 122.027,473.094 121.027,472.427 119.5,472.5C 104.712,464.099 91.3787,453.765 79.5,441.5C 86.7939,388.109 94.4606,334.776 102.5,281.5 Z"/></g>
<g><path style="opacity:0.663" fill="#925f63" d="M 119.5,472.5 C 121.027,472.427 122.027,473.094 122.5,474.5C 120.973,474.573 119.973,473.906 119.5,472.5 Z"/></g>
<g><path style="opacity:0.561" fill="#8e5d6f" d="M 131.5,479.5 C 133.027,479.427 134.027,480.094 134.5,481.5C 132.973,481.573 131.973,480.906 131.5,479.5 Z"/></g>
</svg>
