<?xml version="1.0" encoding="utf-8"?>
<!-- Generator: Adobe Illustrator 17.0.0, SVG Export Plug-In . SVG Version: 6.00 Build 0)  -->
<!DOCTYPE svg PUBLIC "-//W3C//DTD SVG 1.1//EN" "http://www.w3.org/Graphics/SVG/1.1/DTD/svg11.dtd">
<svg version="1.1" id="Layer_1" xmlns="http://www.w3.org/2000/svg" xmlns:xlink="http://www.w3.org/1999/xlink" x="0px" y="0px"
	 width="1024px" height="1024px" viewBox="0 0 1024 1024" enable-background="new 0 0 1024 1024" xml:space="preserve">
<g>
	<g>
		<linearGradient id="SVGID_1_" gradientUnits="userSpaceOnUse" x1="284.6805" y1="388.199" x2="284.6805" y2="955.7957">
			<stop  offset="0" style="stop-color:#FFFFFF"/>
			<stop  offset="0" style="stop-color:#C2E6FF"/>
			<stop  offset="0" style="stop-color:#64C0FF"/>
			<stop  offset="0" style="stop-color:#3FB1FF"/>
			<stop  offset="0.0695" style="stop-color:#2F9DEA"/>
			<stop  offset="0.1709" style="stop-color:#1E87D3"/>
			<stop  offset="0.2873" style="stop-color:#1175C0"/>
			<stop  offset="0.4256" style="stop-color:#0769B4"/>
			<stop  offset="0.6073" style="stop-color:#0262AC"/>
			<stop  offset="1" style="stop-color:#0060AA"/>
		</linearGradient>
		<path fill="url(#SVGID_1_)" d="M187.676,601.12c12.914,29.899,35.452,51.442,58.049,72.863
			c7.51,7.119,15.654,13.586,23.712,20.101c3.62,2.927,7.739,5.237,12.978,8.724c-1.608-7.878-5.133-12.724-8.755-17.496
			c-14.552-19.17-32.499-35.384-47.339-54.3c-9.03-11.51-19.101-22.305-25.091-35.945c-5.155-11.739-4.255-22.889,4.396-32.498
			c8.984-9.978,20.526-12.339,33.262-8.768c10.535,2.955,18.886,9.588,26.613,16.952c12.996,12.385,26.185,24.605,38.559,37.594
			c21.542,22.613,48.956,36.358,75.472,51.556c26.742,15.327,51.256,33.31,70.048,58.283c19.342,25.704,28.902,54.558,29.812,86.637
			c1.194,42.073-3.161,83.708-8.826,125.275c-0.682,5.001-1.608,10.007-1.767,15.031c-0.245,7.75-3.213,10.734-11.549,10.665
			c-47.797-0.398-95.598-0.193-143.398-0.192c-2.492,0-4.984,0-7.4,0c-2.715-5.287,0.006-9.603,1.001-13.74
			c3.547-14.754,6.765-29.601,7.839-44.699c1.355-19.053-4.162-36.357-15.626-51.828c-16.707-22.546-37.965-40.548-58.552-59.21
			c-20.419-18.51-41.078-36.754-61.709-55.029c-15.54-13.765-25.299-31.413-33.614-49.969
			c-17.561-39.188-36.389-78.038-45.528-120.271c-9.608-44.401-12.349-89.522-9.322-134.919c0.437-6.548,0.559-13.097,1.702-19.616
			c2.559-14.595,13.059-21.371,27.093-16.621c16.907,5.723,24.827,19.136,28.575,35.467c4.523,19.704,5.75,39.948,9.206,59.833
			C164.355,524.342,172.102,563.452,187.676,601.12z"/>
		<linearGradient id="SVGID_2_" gradientUnits="userSpaceOnUse" x1="739.5623" y1="387.978" x2="739.5623" y2="955.7533">
			<stop  offset="0" style="stop-color:#FFFFFF"/>
			<stop  offset="0" style="stop-color:#C2E6FF"/>
			<stop  offset="0" style="stop-color:#64C0FF"/>
			<stop  offset="0" style="stop-color:#3FB1FF"/>
			<stop  offset="0.0695" style="stop-color:#2F9DEA"/>
			<stop  offset="0.1709" style="stop-color:#1E87D3"/>
			<stop  offset="0.2873" style="stop-color:#1175C0"/>
			<stop  offset="0.4256" style="stop-color:#0769B4"/>
			<stop  offset="0.6073" style="stop-color:#0262AC"/>
			<stop  offset="1" style="stop-color:#0060AA"/>
		</linearGradient>
		<path fill="url(#SVGID_2_)" d="M712.87,921.685c2.419,11.195,4.724,21.756,6.971,32.05c-2.758,2.696-5.686,1.837-8.339,1.84
			c-48.316,0.044-96.632-0.139-144.946,0.178c-7.233,0.047-9.837-2.667-10.7-9.262c-5.708-43.605-10.621-87.221-10.956-131.324
			c-0.451-59.369,25.469-104.317,72.89-138.093c17.328-12.342,35.877-22.773,54.528-32.922
			c22.491-12.239,41.949-28.122,59.259-46.812c11.707-12.641,24.075-24.582,37.828-34.983c8.649-6.541,18.131-10.76,29.466-10.061
			c17.741,1.094,30.87,18.376,26.926,35.703c-1.906,8.372-6.376,15.327-11.263,22.128c-17.455,24.294-38.608,45.457-57.792,68.285
			c-5.325,6.337-10.426,12.826-13.497,20.402c2.044,1.996,3.549,0.998,4.644,0.179c36.508-27.328,71.131-56.776,89.642-99.809
			c14.109-32.797,21.582-67.762,27.935-102.885c4.179-23.107,5.648-46.609,10.576-69.596c3.206-14.955,9.613-27.702,23.8-35.152
			c16.05-8.428,29.712-1.532,31.904,16.304c4.027,32.77,2.354,65.603,0.6,98.419c-3.796,71.05-33.036,133.829-64.222,195.86
			c-10.464,20.814-29.008,34.792-46.066,49.834c-26.358,23.243-53.248,45.913-77.886,71.026
			c-13.502,13.762-26.157,28.184-32.113,47.192C706.706,887.266,708.953,904.147,712.87,921.685z"/>
	</g>
	<g>
		<linearGradient id="SVGID_3_" gradientUnits="userSpaceOnUse" x1="511.8591" y1="238.2635" x2="511.8591" y2="619.7354">
			<stop  offset="0" style="stop-color:#FFFFFF"/>
			<stop  offset="0" style="stop-color:#C2E6FF"/>
			<stop  offset="0" style="stop-color:#64C0FF"/>
			<stop  offset="0" style="stop-color:#3FB1FF"/>
			<stop  offset="0.0695" style="stop-color:#2F9DEA"/>
			<stop  offset="0.1709" style="stop-color:#1E87D3"/>
			<stop  offset="0.2873" style="stop-color:#1175C0"/>
			<stop  offset="0.4256" style="stop-color:#0769B4"/>
			<stop  offset="0.6073" style="stop-color:#0262AC"/>
			<stop  offset="1" style="stop-color:#0060AA"/>
		</linearGradient>
		<path fill="url(#SVGID_3_)" d="M359.584,313.713c42.513-53.764,98.168-78.386,165.466-75.171
			c51.045,2.438,94.06,24.13,128.547,61.789c34.094,37.23,50.747,81.365,50.318,131.976
			c-0.636,74.888-48.87,145.461-118.519,173.009c-97.754,38.663-204.356-2.538-247.757-98.26
			c-28.97-63.893-22.059-126.557,16.367-185.471C355.661,319.044,357.5,316.624,359.584,313.713 M591.572,287.518
			c-44.611-24.6-91.444-27.76-138.222-9.43c-82.929,32.495-125.784,124.401-92.897,209.548
			c31.955,82.734,125.873,123.864,210.217,92.123c74.253-27.943,117.493-106.524,100.942-183.63
			C661.359,348.363,634.033,313.004,591.572,287.518z"/>
		<linearGradient id="SVGID_4_" gradientUnits="userSpaceOnUse" x1="512.1715" y1="308.542" x2="512.1715" y2="535.5129">
			<stop  offset="0" style="stop-color:#FFFFFF"/>
			<stop  offset="0" style="stop-color:#C2E6FF"/>
			<stop  offset="0" style="stop-color:#64C0FF"/>
			<stop  offset="0" style="stop-color:#3FB1FF"/>
			<stop  offset="0.0695" style="stop-color:#2F9DEA"/>
			<stop  offset="0.1709" style="stop-color:#1E87D3"/>
			<stop  offset="0.2873" style="stop-color:#1175C0"/>
			<stop  offset="0.4256" style="stop-color:#0769B4"/>
			<stop  offset="0.6073" style="stop-color:#0262AC"/>
			<stop  offset="1" style="stop-color:#0060AA"/>
		</linearGradient>
		<path fill="url(#SVGID_4_)" d="M572.193,468.807c5.464,22.5,11.328,44.28,15.478,66.495c-4.025,0.887-5.799-1.238-7.855-2.527
			c-19.699-12.358-39.471-24.603-58.993-37.236c-5.779-3.74-10.355-4.078-16.392-0.152c-19.278,12.539-38.944,24.483-58.513,36.572
			c-2.274,1.405-4.278,3.743-7.665,3.074c-1.977-4.323,0.381-8.396,1.328-12.352c5.054-21.109,10.2-42.205,15.934-63.135
			c1.679-6.128,0.303-9.675-4.422-13.527c-18.022-14.692-35.767-29.724-53.559-44.698c-2.204-1.855-4.882-3.482-5.997-7.56
			c7.217-0.684,13.846-1.629,20.5-1.883c18.929-0.724,37.72-3.841,56.692-3.415c6.538,0.147,9.995-2.323,12.409-8.452
			c7.871-19.981,16.26-39.758,24.53-59.58c1.707-4.092,2.777-8.582,6.042-11.89c3.585,1.052,4.098,4.06,5.12,6.47
			c9.175,21.631,18.397,43.246,27.24,65.013c1.99,4.898,4.62,7.038,9.947,7.338c20.924,1.177,41.824,2.766,62.734,4.184
			c5.442,0.369,10.967,0.257,16.037,2.561c0.251,3.927-2.791,5.027-4.761,6.69c-16.996,14.344-33.698,29.083-51.328,42.607
			c-7.545,5.788-9.696,11.358-6.177,19.723C571.205,464.747,571.538,466.511,572.193,468.807z"/>
	</g>
	<g>
		<linearGradient id="SVGID_5_" gradientUnits="userSpaceOnUse" x1="512.1672" y1="68.2044" x2="512.1672" y2="210.2532">
			<stop  offset="0" style="stop-color:#FFFFFF"/>
			<stop  offset="0" style="stop-color:#FFF1E2"/>
			<stop  offset="0" style="stop-color:#FFD8AE"/>
			<stop  offset="0" style="stop-color:#FFC689"/>
			<stop  offset="0" style="stop-color:#FFBB71"/>
			<stop  offset="0" style="stop-color:#FFB769"/>
			<stop  offset="0.0211" style="stop-color:#FFB462"/>
			<stop  offset="0.113" style="stop-color:#FFA746"/>
			<stop  offset="0.1667" style="stop-color:#FFA23C"/>
			<stop  offset="0.2286" style="stop-color:#FF9D32"/>
			<stop  offset="0.3507" style="stop-color:#FF9727"/>
			<stop  offset="0.5227" style="stop-color:#FF9420"/>
			<stop  offset="1" style="stop-color:#FF931E"/>
		</linearGradient>
		<path fill="url(#SVGID_5_)" d="M515.56,68.223c6.766,2.711,9.098,7.804,9.113,14.062c0.092,38.2,0.151,76.401,0.061,114.601
			c-0.019,8.012-5.152,13.158-12.472,13.361c-7.15,0.198-12.353-4.77-12.515-13.246c-0.333-17.449-0.13-34.909-0.124-52.364
			c0.006-20.492-0.056-40.984,0.093-61.475C499.793,72.53,504.712,67.868,515.56,68.223z"/>
		<linearGradient id="SVGID_6_" gradientUnits="userSpaceOnUse" x1="423.0238" y1="93.0473" x2="423.0238" y2="221.6124">
			<stop  offset="0" style="stop-color:#FFFFFF"/>
			<stop  offset="0" style="stop-color:#FFF1E2"/>
			<stop  offset="0" style="stop-color:#FFD8AE"/>
			<stop  offset="0" style="stop-color:#FFC689"/>
			<stop  offset="0" style="stop-color:#FFBB71"/>
			<stop  offset="0" style="stop-color:#FFB769"/>
			<stop  offset="0.0211" style="stop-color:#FFB462"/>
			<stop  offset="0.113" style="stop-color:#FFA746"/>
			<stop  offset="0.1667" style="stop-color:#FFA23C"/>
			<stop  offset="0.2286" style="stop-color:#FF9D32"/>
			<stop  offset="0.3507" style="stop-color:#FF9727"/>
			<stop  offset="0.5227" style="stop-color:#FF9420"/>
			<stop  offset="1" style="stop-color:#FF931E"/>
		</linearGradient>
		<path fill="url(#SVGID_6_)" d="M409.099,93.506c4.54,2.266,5.957,6.114,7.36,9.909c12.072,32.657,24.149,65.312,36.105,98.011
			c1.276,3.489,2.775,7.158,1.442,11.042c-1.799,5.24-5.421,8.765-10.967,9.113c-6.209,0.389-10.712-3.018-12.972-8.643
			c-4.135-10.292-7.935-20.722-11.758-31.136c-8.17-22.257-16.266-44.541-24.389-66.815c-0.519-1.423-1.089-2.833-1.504-4.287
			C388.939,98.516,395.823,91.075,409.099,93.506z"/>
		<linearGradient id="SVGID_7_" gradientUnits="userSpaceOnUse" x1="601.9338" y1="92.3701" x2="601.9338" y2="221.6709">
			<stop  offset="0" style="stop-color:#FFFFFF"/>
			<stop  offset="0" style="stop-color:#FFF1E2"/>
			<stop  offset="0" style="stop-color:#FFD8AE"/>
			<stop  offset="0" style="stop-color:#FFC689"/>
			<stop  offset="0" style="stop-color:#FFBB71"/>
			<stop  offset="0" style="stop-color:#FFB769"/>
			<stop  offset="0.0211" style="stop-color:#FFB462"/>
			<stop  offset="0.113" style="stop-color:#FFA746"/>
			<stop  offset="0.1667" style="stop-color:#FFA23C"/>
			<stop  offset="0.2286" style="stop-color:#FF9D32"/>
			<stop  offset="0.3507" style="stop-color:#FF9727"/>
			<stop  offset="0.5227" style="stop-color:#FF9420"/>
			<stop  offset="1" style="stop-color:#FF931E"/>
		</linearGradient>
		<path fill="url(#SVGID_7_)" d="M613.575,95.165c5.762-3.802,11.039-3.795,15.767,0.45c4.652,4.177,5.238,9.36,3.076,15.199
			c-12.161,32.848-24.211,65.737-36.306,98.61c-0.348,0.946-0.742,1.877-1.148,2.801c-3.425,7.785-9.986,11.135-16.878,8.625
			c-6.805-2.478-9.612-9.603-6.698-17.623c4.908-13.511,9.986-26.96,14.952-40.45c6.535-17.748,13.004-35.52,19.561-53.26
			C607.727,104.578,609.06,99.351,613.575,95.165z"/>
		<linearGradient id="SVGID_8_" gradientUnits="userSpaceOnUse" x1="679.7938" y1="154.4076" x2="679.7938" y2="255.3044">
			<stop  offset="0" style="stop-color:#FFFFFF"/>
			<stop  offset="0" style="stop-color:#FFF1E2"/>
			<stop  offset="0" style="stop-color:#FFD8AE"/>
			<stop  offset="0" style="stop-color:#FFC689"/>
			<stop  offset="0" style="stop-color:#FFBB71"/>
			<stop  offset="0" style="stop-color:#FFB769"/>
			<stop  offset="0.0211" style="stop-color:#FFB462"/>
			<stop  offset="0.113" style="stop-color:#FFA746"/>
			<stop  offset="0.1667" style="stop-color:#FFA23C"/>
			<stop  offset="0.2286" style="stop-color:#FF9D32"/>
			<stop  offset="0.3507" style="stop-color:#FF9727"/>
			<stop  offset="0.5227" style="stop-color:#FF9420"/>
			<stop  offset="1" style="stop-color:#FF931E"/>
		</linearGradient>
		<path fill="url(#SVGID_8_)" d="M635.846,236.531c15.841-18.369,31.418-36.236,46.965-54.129
			c6.453-7.427,12.699-15.04,19.306-22.326c6.117-6.746,13.526-7.436,19.266-2.256c5.324,4.805,5.311,12.398-0.306,18.857
			c-21.024,24.179-42.053,48.355-63.229,72.401c-6.679,7.584-14.557,8.224-20.255,2.006
			C633.813,246.958,633.26,242.14,635.846,236.531z"/>
		<linearGradient id="SVGID_9_" gradientUnits="userSpaceOnUse" x1="344.4516" y1="154.5742" x2="344.4516" y2="255.3849">
			<stop  offset="0" style="stop-color:#FFFFFF"/>
			<stop  offset="0" style="stop-color:#FFF1E2"/>
			<stop  offset="0" style="stop-color:#FFD8AE"/>
			<stop  offset="0" style="stop-color:#FFC689"/>
			<stop  offset="0" style="stop-color:#FFBB71"/>
			<stop  offset="0" style="stop-color:#FFB769"/>
			<stop  offset="0.0211" style="stop-color:#FFB462"/>
			<stop  offset="0.113" style="stop-color:#FFA746"/>
			<stop  offset="0.1667" style="stop-color:#FFA23C"/>
			<stop  offset="0.2286" style="stop-color:#FF9D32"/>
			<stop  offset="0.3507" style="stop-color:#FF9727"/>
			<stop  offset="0.5227" style="stop-color:#FF9420"/>
			<stop  offset="1" style="stop-color:#FF931E"/>
		</linearGradient>
		<path fill="url(#SVGID_9_)" d="M305.462,179.592c-8.023-10.644-8.475-17.073-1.877-22.156c6.904-5.318,13.888-3.222,21.76,6.268
			c18.72,22.568,38.273,44.408,57.969,66.122c1.357,1.497,2.849,2.903,4.007,4.543c3.86,5.465,3.301,13.277-1.116,17.384
			c-5.281,4.911-12.111,5.031-17.578-0.801c-11.403-12.165-22.389-24.724-33.434-37.221
			C325.319,202.56,315.597,191.256,305.462,179.592z"/>
	</g>
</g>
</svg>
