<svg xmlns="http://www.w3.org/2000/svg" version="1.1" width="512px" height="512px" style="shape-rendering:geometricPrecision; text-rendering:geometricPrecision; image-rendering:optimizeQuality; fill-rule:evenodd; clip-rule:evenodd">
<g><path style="opacity:0.973" fill="#20507c" d="M 155.5,44.5 C 179.406,41.5389 197.572,50.2055 210,70.5C 212.763,76.219 214.596,82.219 215.5,88.5C 245.833,88.5 276.167,88.5 306.5,88.5C 311.635,60.6965 328.302,46.0298 356.5,44.5C 382.963,45.4602 399.463,58.7935 406,84.5C 409.122,104.804 402.956,121.638 387.5,135C 402.707,161.249 418.041,187.415 433.5,213.5C 463.203,204.672 485.036,214.006 499,241.5C 507.546,270.881 498.379,292.714 471.5,307C 458.543,311.825 445.71,311.658 433,306.5C 417.833,332.833 402.667,359.167 387.5,385.5C 408.394,405.227 412.227,427.893 399,453.5C 384.278,473.631 364.778,480.465 340.5,474C 321.742,466.741 310.408,453.241 306.5,433.5C 276.167,432.167 245.833,432.167 215.5,433.5C 206.232,467.638 184.232,481.138 149.5,474C 127.593,465.528 116.26,449.528 115.5,426C 115.756,409.654 122.09,396.154 134.5,385.5C 119.333,359.167 104.167,332.833 89,306.5C 57.874,316.103 35.5407,306.103 22,276.5C 15.7691,253.233 21.9358,234.066 40.5,219C 55.6432,209.44 71.6432,207.607 88.5,213.5C 103.945,187.451 119.278,161.284 134.5,135C 115.957,118.33 110.79,98.1633 119,74.5C 126.309,58.4488 138.475,48.4488 155.5,44.5 Z M 157.5,57.5 C 180.601,55.4591 195.434,65.4591 202,87.5C 204.145,109.679 194.645,124.179 173.5,131C 150.82,133.64 135.987,124.14 129,102.5C 126.58,79.7859 136.08,64.7859 157.5,57.5 Z M 348.5,57.5 C 371.151,55.3376 385.984,65.0043 393,86.5C 395.629,109.188 386.129,124.021 364.5,131C 341.378,133.528 326.544,123.695 320,101.5C 318.062,79.2953 327.562,64.6287 348.5,57.5 Z M 215.5,100.5 C 245.833,100.5 276.167,100.5 306.5,100.5C 310.27,123.771 323.604,138.271 346.5,144C 356.208,145.207 365.708,144.374 375,141.5C 390.866,167.391 406.366,193.557 421.5,220C 403.33,235.839 397.83,255.339 405,278.5C 408.912,287.154 414.412,294.654 421.5,301C 405.967,327.037 390.634,353.203 375.5,379.5C 350.457,371.237 329.957,377.571 314,398.5C 310.411,404.767 307.911,411.434 306.5,418.5C 276.167,419.833 245.833,419.833 215.5,418.5C 207.011,386.515 186.344,372.682 153.5,377C 151.129,377.735 148.795,378.568 146.5,379.5C 131.366,353.203 116.033,327.037 100.5,301C 122.37,280.24 125.87,256.74 111,230.5C 107.5,227 104,223.5 100.5,220C 115.634,193.557 131.134,167.391 147,141.5C 177.675,150.157 199.675,140.157 213,111.5C 213.995,107.855 214.828,104.188 215.5,100.5 Z M 67.5,222.5 C 91.27,223.883 104.603,236.383 107.5,260C 103.92,286.249 88.9197,298.582 62.5,297C 39.6058,289.712 30.1058,274.212 34,250.5C 39.2949,234.031 50.4616,224.698 67.5,222.5 Z M 449.5,222.5 C 478.78,225.42 491.613,241.42 488,270.5C 480.593,290.122 466.426,298.956 445.5,297C 426.468,291.967 416.135,279.634 414.5,260C 416.789,238.549 428.456,226.049 449.5,222.5 Z M 160.5,388.5 C 181.883,388.104 195.717,398.104 202,418.5C 204.326,442.495 193.826,457.329 170.5,463C 141.163,462.662 127.329,447.828 129,418.5C 133.421,402.052 143.921,392.052 160.5,388.5 Z M 352.5,388.5 C 373.596,388.449 387.096,398.449 393,418.5C 395.351,441.976 385.185,456.809 362.5,463C 340.345,464.491 326.178,454.658 320,433.5C 317.953,409.065 328.786,394.065 352.5,388.5 Z"/></g>
<g><path style="opacity:0.97" fill="#20507c" d="M 342.5,194.5 C 343.822,194.33 344.989,194.663 346,195.5C 355.44,214.712 364.606,234.046 373.5,253.5C 369.529,256.49 365.196,258.99 360.5,261C 359.216,261.684 358.049,261.517 357,260.5C 346.994,240.826 337.828,220.826 329.5,200.5C 334.251,199.29 338.584,197.29 342.5,194.5 Z"/></g>
<g><path style="opacity:0.986" fill="#2578bc" d="M 248.5,205.5 C 254.842,205.334 261.175,205.5 267.5,206C 286.808,209.029 306.142,211.862 325.5,214.5C 332.705,229.743 340.038,244.91 347.5,260C 338.766,264.236 331.766,270.403 326.5,278.5C 315.251,271.959 304.084,265.293 293,258.5C 292.312,257.668 292.479,257.002 293.5,256.5C 298.777,254.223 302.777,250.556 305.5,245.5C 305.167,243.833 304.167,242.833 302.5,242.5C 299.272,245.099 295.938,247.599 292.5,250C 284.223,251.243 276.556,249.577 269.5,245C 262.125,239.98 254.458,235.48 246.5,231.5C 243.18,233.667 240.68,236.667 239,240.5C 233.017,249.094 225.184,251.76 215.5,248.5C 215.167,248.167 214.833,247.833 214.5,247.5C 222.494,237.181 228.66,225.847 233,213.5C 237.361,209.071 242.528,206.404 248.5,205.5 Z"/></g>
<g><path style="opacity:0.984" fill="#1f4f79" d="M 177.5,206.5 C 183.458,208.146 188.792,210.812 193.5,214.5C 184.268,234.632 174.268,254.299 163.5,273.5C 158.147,271.16 153.147,268.327 148.5,265C 158.044,245.412 167.711,225.912 177.5,206.5 Z"/></g>
<g><path style="opacity:0.982" fill="#2578bc" d="M 199.5,221.5 C 206.286,223.946 213.286,225.613 220.5,226.5C 216,233.5 211.5,240.5 207,247.5C 206.28,249.112 206.446,250.612 207.5,252C 217.794,258.301 227.794,257.967 237.5,251C 241.358,247.418 244.858,243.584 248,239.5C 275.982,255.657 303.649,272.324 331,289.5C 332.5,297.333 329.333,300.5 321.5,299C 315.002,294.583 308.335,290.416 301.5,286.5C 298.719,287.787 298.052,289.787 299.5,292.5C 304.107,294.278 307.607,297.278 310,301.5C 310.321,308.113 307.155,310.613 300.5,309C 296.664,306.916 292.997,304.583 289.5,302C 287.35,300.41 285.017,299.743 282.5,300C 281.446,301.388 281.28,302.888 282,304.5C 285.014,306.519 287.68,308.852 290,311.5C 290.962,318.785 287.795,321.618 280.5,320C 277.167,318 273.833,316 270.5,314C 268.094,313.221 266.427,314.054 265.5,316.5C 268.171,318.971 270.504,321.637 272.5,324.5C 272.099,328.401 269.932,330.401 266,330.5C 262.261,329.63 258.928,327.964 256,325.5C 260.733,312.965 256.566,305.298 243.5,302.5C 241.002,294 235.335,289.666 226.5,289.5C 224.484,279.329 218.484,275.496 208.5,278C 206.656,279.182 204.823,280.349 203,281.5C 196.088,275.322 188.921,274.989 181.5,280.5C 178.437,278.975 175.77,276.975 173.5,274.5C 182.45,256.934 191.116,239.268 199.5,221.5 Z"/></g>
<g><path style="opacity:0.957" fill="#2578bb" d="M 189.5,282.5 C 195.656,282.487 198.49,285.487 198,291.5C 196.213,295.577 194.046,299.41 191.5,303C 183,305.167 179.833,302 182,293.5C 183.548,289.035 186.048,285.368 189.5,282.5 Z"/></g>
<g><path style="opacity:0.965" fill="#2677bc" d="M 210.5,283.5 C 215.995,282.411 219.329,284.578 220.5,290C 216.409,299.682 211.909,309.182 207,318.5C 202.568,322.743 198.568,322.41 195,317.5C 194.333,315.5 194.333,313.5 195,311.5C 199.418,301.657 204.584,292.323 210.5,283.5 Z"/></g>
<g><path style="opacity:0.958" fill="#2578bc" d="M 226.5,296.5 C 233.825,295.992 236.658,299.326 235,306.5C 232.333,311.833 229.667,317.167 227,322.5C 223.916,326.757 220.249,327.424 216,324.5C 214.578,321.97 214.245,319.303 215,316.5C 218.117,309.245 221.951,302.579 226.5,296.5 Z"/></g>
<g><path style="opacity:0.953" fill="#2578bc" d="M 242.5,309.5 C 249.329,308.828 252.163,311.828 251,318.5C 249.213,322.577 247.046,326.41 244.5,330C 236.333,331.833 233.167,328.667 235,320.5C 236.548,316.035 239.048,312.368 242.5,309.5 Z"/></g>
</svg>
