<?xml version="1.0" encoding="utf-8"?>
<svg viewBox="356.5 596.5 292.1494 322" xmlns="http://www.w3.org/2000/svg" xmlns:xlink="http://www.w3.org/1999/xlink">
  <defs>
    <!-- <linearGradient gradientUnits="userSpaceOnUse" x1="631.075" y1="596.5" x2="631.075" y2="646.5" id="color-0-0" xlink:href="#color-0"/> -->
    <linearGradient id="color-0">
      <stop style="stop-color: #fdc830;" offset="0"/>
      <stop style="stop-color: #f37335;" offset="1"/>
    </linearGradient>
    <!-- <linearGradient gradientUnits="userSpaceOnUse" x1="583.237" y1="641.439" x2="583.237" y2="909" id="color-0-1" xlink:href="#color-0"/>
    <linearGradient gradientUnits="userSpaceOnUse" x1="531.71" y1="609.472" x2="531.71" y2="664.5" id="color-0-2" xlink:href="#color-0"/>
    <linearGradient gradientUnits="userSpaceOnUse" x1="489.942" y1="686.5" x2="489.942" y2="918.5" id="color-0-3" xlink:href="#color-0"/>
    <linearGradient gradientUnits="userSpaceOnUse" x1="431" y1="754" x2="431" y2="756.5" id="color-0-4" xlink:href="#color-0"/>
    <linearGradient gradientUnits="userSpaceOnUse" x1="488.5" y1="833.458" x2="488.5" y2="890.242" id="color-0-5" xlink:href="#color-0"/>
    <linearGradient gradientUnits="userSpaceOnUse" x1="469" y1="885.441" x2="469" y2="887.5" id="color-0-6" xlink:href="#color-0"/>
    <linearGradient gradientUnits="userSpaceOnUse" x1="370" y1="891.321" x2="370" y2="893.562" id="color-0-7" xlink:href="#color-0"/> -->
    <linearGradient gradientUnits="userSpaceOnUse" x1="462" y1="913.378" x2="462" y2="915.5" id="color-0-8" xlink:href="#color-0"/>
    <linearGradient gradientUnits="userSpaceOnUse" x1="495.5" y1="913.5" x2="495.5" y2="916.5" id="color-0-9" xlink:href="#color-0"/>
  </defs>
  <g>
    <path fill="#603C1C" d="M 639.5,596.5 C 647.225,603.846 650.058,612.846 648,623.5C 645.699,634.793 639.199,642.46 628.5,646.5C 623.213,644.189 618.213,641.356 613.5,638C 630.418,634.248 639.752,623.748 641.5,606.5C 641.45,603.024 640.783,599.69 639.5,596.5 Z"/>
    <path fill="url('#color-0')" d="M 602.5,641.5 C 605.187,641.336 607.854,641.503 610.5,642C 615.102,644.804 619.768,647.304 624.5,649.5C 622.284,656.465 619.284,663.132 615.5,669.5C 606.902,665.528 606.569,666.028 614.5,671C 651.096,719.028 655.263,769.862 627,823.5C 618.473,848.98 617.306,874.813 623.5,901C 622.238,904.929 619.572,907.595 615.5,909C 599.519,908.801 583.519,908.467 567.5,908C 575.459,906.836 583.459,906.336 591.5,906.5C 591.334,902.154 591.501,897.821 592,893.5C 595.115,888.156 597.448,882.489 599,876.5C 599.083,865.077 600.083,853.744 602,842.5C 605.031,831.43 608.365,820.43 612,809.5C 617.288,764.495 599.122,733.329 557.5,716C 548.991,713.632 540.325,712.298 531.5,712C 528.613,709.113 525.779,706.279 523,703.5C 521.764,697.523 521.097,691.523 521,685.5C 533.446,673.054 545.946,660.554 558.5,648C 573.333,645.982 587.999,643.816 602.5,641.5 Z"/>
    <path fill="#603C1C" d="M 525.5,609.5 C 526.376,609.369 527.043,609.702 527.5,610.5C 523.465,624.167 526.798,635.667 537.5,645C 541.171,647.39 545.171,648.89 549.5,649.5C 548.861,651.76 547.694,653.76 546,655.5C 542.94,659.063 539.44,662.063 535.5,664.5C 523.415,660.51 516.248,652.176 514,639.5C 513.302,627.719 517.135,617.719 525.5,609.5 Z"/>
    <path fill="url('#color-0')" d="M 543.5,901.5 C 544.407,907.106 544.74,912.773 544.5,918.5C 533.497,917.875 522.497,917.208 511.5,916.5C 511.5,915.5 511.5,914.5 511.5,913.5C 512.791,913.737 513.791,913.404 514.5,912.5C 513.077,909.483 512.077,906.316 511.5,903C 519.039,881.871 521.539,860.038 519,837.5C 513.961,817.081 512.294,796.415 514,775.5C 511.439,784.991 510.272,794.658 510.5,804.5C 510.914,814.536 511.414,824.536 512,834.5C 481.633,821.245 453.133,824.412 426.5,844C 413.119,856.61 407.452,872.11 409.5,890.5C 409.5,891.5 409.5,892.5 409.5,893.5C 406.941,893.198 404.607,893.532 402.5,894.5C 395.978,894.823 389.645,894.49 383.5,893.5C 381.365,891.631 378.698,890.964 375.5,891.5C 377.948,890.527 380.615,890.194 383.5,890.5C 382.998,885.162 382.831,879.828 383,874.5C 390.991,862.361 395.491,849.027 396.5,834.5C 397.324,830.688 397.824,826.688 398,822.5C 398.717,821.956 399.217,821.289 399.5,820.5C 404.247,820.864 408.081,819.198 411,815.5C 412.235,807.577 412.902,799.577 413,791.5C 414.566,778.782 419.232,767.449 427,757.5C 428.44,756.852 429.94,756.519 431.5,756.5C 433.924,755.97 436.257,755.136 438.5,754C 433.544,754.251 428.544,754.418 423.5,754.5C 414.526,753.032 408.36,748.032 405,739.5C 400.389,724.913 404.556,713.746 417.5,706C 427.459,703.073 436.792,704.406 445.5,710C 464.441,713.269 475.941,705.436 480,686.5C 484.921,691.938 486.588,698.271 485,705.5C 482.833,709 480,711.833 476.5,714C 479.735,713.074 482.735,711.741 485.5,710C 477.551,726.825 464.884,731.825 447.5,725C 444.174,722.045 440.841,719.045 437.5,716C 427.736,711.699 420.236,714.199 415,723.5C 412.277,733.886 415.777,741.052 425.5,745C 432.951,745.778 439.284,743.444 444.5,738C 449.12,736.382 453.787,736.382 458.5,738C 481.853,741.246 502.853,735.913 521.5,722C 562.203,723.033 589.036,742.866 602,781.5C 606.569,801.517 604.569,820.851 596,839.5C 594.167,842 592.333,844.5 590.5,847C 579.556,854.069 567.556,857.069 554.5,856C 551.026,855.699 547.692,854.866 544.5,853.5C 544.167,852.833 543.833,852.167 543.5,851.5C 544.989,846.24 545.489,840.906 545,835.5C 544.116,842.037 542.449,848.37 540,854.5C 538.761,870.358 539.927,886.024 543.5,901.5 Z"/>
    <path fill="url('#color-0')" d="M 431.5,756.5 C 428.833,755.833 426.167,755.167 423.5,754.5C 428.544,754.418 433.544,754.251 438.5,754C 436.257,755.136 433.924,755.97 431.5,756.5 Z"/>
    <path fill="url('#color-0')" d="M 479.5,887.5 C 479.5,886.833 479.5,886.167 479.5,885.5C 479.5,884.167 478.833,883.5 477.5,883.5C 475.286,883.709 473.619,882.876 472.5,881C 477.477,865.273 477.81,849.44 473.5,833.5C 484.263,833.149 494.596,834.983 504.5,839C 493.829,850.313 491.662,863.147 498,877.5C 500.684,880.702 502.517,884.368 503.5,888.5C 496.562,890.419 489.562,890.752 482.5,889.5C 481.995,888.081 480.995,887.415 479.5,887.5 Z"/>
    <path fill="url('#color-0-9')" d="M 463.5,885.5 C 468.833,885.5 474.167,885.5 479.5,885.5C 479.5,886.167 479.5,886.833 479.5,887.5C 472.5,887.077 465.5,886.577 458.5,886C 460.134,885.506 461.801,885.34 463.5,885.5 Z"/>
    <path fill="url('#color-0-8')" d="M 375.5,891.5 C 378.698,890.964 381.365,891.631 383.5,893.5C 374.494,893.666 365.494,893.5 356.5,893C 362.827,892.349 369.16,891.849 375.5,891.5 Z"/>

      <path fill="url('#color-0-8')" d="M 444.5,914.5 C 455.988,913.505 467.655,913.172 479.5,913.5C 479.5,914.167 479.5,914.833 479.5,915.5C 467.837,915.062 456.17,914.728 444.5,914.5 Z"/>
      <path fill="url('#color-0-9')" d="M 479.5,913.5 C 490.167,913.5 500.833,913.5 511.5,913.5C 511.5,914.5 511.5,915.5 511.5,916.5C 500.833,916.167 490.167,915.833 479.5,915.5C 479.5,914.833 479.5,914.167 479.5,913.5 Z"/>

  </g>
</svg>
